%TF.GenerationSoftware,KiCad,Pcbnew,9.0.7*%
%TF.CreationDate,2026-02-08T19:34:05+05:30*%
%TF.ProjectId,STM32_Custom_Board_Phase3,53544d33-325f-4437-9573-746f6d5f426f,rev?*%
%TF.SameCoordinates,Original*%
%TF.FileFunction,Copper,L1,Top*%
%TF.FilePolarity,Positive*%
%FSLAX46Y46*%
G04 Gerber Fmt 4.6, Leading zero omitted, Abs format (unit mm)*
G04 Created by KiCad (PCBNEW 9.0.7) date 2026-02-08 19:34:05*
%MOMM*%
%LPD*%
G01*
G04 APERTURE LIST*
G04 Aperture macros list*
%AMRoundRect*
0 Rectangle with rounded corners*
0 $1 Rounding radius*
0 $2 $3 $4 $5 $6 $7 $8 $9 X,Y pos of 4 corners*
0 Add a 4 corners polygon primitive as box body*
4,1,4,$2,$3,$4,$5,$6,$7,$8,$9,$2,$3,0*
0 Add four circle primitives for the rounded corners*
1,1,$1+$1,$2,$3*
1,1,$1+$1,$4,$5*
1,1,$1+$1,$6,$7*
1,1,$1+$1,$8,$9*
0 Add four rect primitives between the rounded corners*
20,1,$1+$1,$2,$3,$4,$5,0*
20,1,$1+$1,$4,$5,$6,$7,0*
20,1,$1+$1,$6,$7,$8,$9,0*
20,1,$1+$1,$8,$9,$2,$3,0*%
G04 Aperture macros list end*
%TA.AperFunction,SMDPad,CuDef*%
%ADD10RoundRect,0.225000X0.225000X0.250000X-0.225000X0.250000X-0.225000X-0.250000X0.225000X-0.250000X0*%
%TD*%
%TA.AperFunction,SMDPad,CuDef*%
%ADD11RoundRect,0.225000X-0.225000X-0.250000X0.225000X-0.250000X0.225000X0.250000X-0.225000X0.250000X0*%
%TD*%
%TA.AperFunction,SMDPad,CuDef*%
%ADD12R,1.350000X0.400000*%
%TD*%
%TA.AperFunction,HeatsinkPad*%
%ADD13O,1.900000X1.200000*%
%TD*%
%TA.AperFunction,SMDPad,CuDef*%
%ADD14R,1.900000X1.200000*%
%TD*%
%TA.AperFunction,HeatsinkPad*%
%ADD15C,1.450000*%
%TD*%
%TA.AperFunction,SMDPad,CuDef*%
%ADD16R,1.900000X1.500000*%
%TD*%
%TA.AperFunction,SMDPad,CuDef*%
%ADD17RoundRect,0.200000X-0.200000X-0.275000X0.200000X-0.275000X0.200000X0.275000X-0.200000X0.275000X0*%
%TD*%
%TA.AperFunction,ComponentPad*%
%ADD18R,1.700000X1.700000*%
%TD*%
%TA.AperFunction,ComponentPad*%
%ADD19C,1.700000*%
%TD*%
%TA.AperFunction,SMDPad,CuDef*%
%ADD20RoundRect,0.375000X-0.625000X-0.375000X0.625000X-0.375000X0.625000X0.375000X-0.625000X0.375000X0*%
%TD*%
%TA.AperFunction,SMDPad,CuDef*%
%ADD21RoundRect,0.500000X-0.500000X-1.400000X0.500000X-1.400000X0.500000X1.400000X-0.500000X1.400000X0*%
%TD*%
%TA.AperFunction,SMDPad,CuDef*%
%ADD22RoundRect,0.500000X0.500000X-0.500000X0.500000X0.500000X-0.500000X0.500000X-0.500000X-0.500000X0*%
%TD*%
%TA.AperFunction,SMDPad,CuDef*%
%ADD23RoundRect,0.225000X0.250000X-0.225000X0.250000X0.225000X-0.250000X0.225000X-0.250000X-0.225000X0*%
%TD*%
%TA.AperFunction,SMDPad,CuDef*%
%ADD24RoundRect,0.500000X-0.500000X-0.500000X0.500000X-0.500000X0.500000X0.500000X-0.500000X0.500000X0*%
%TD*%
%TA.AperFunction,SMDPad,CuDef*%
%ADD25RoundRect,0.250000X0.950000X-0.750000X0.950000X0.750000X-0.950000X0.750000X-0.950000X-0.750000X0*%
%TD*%
%TA.AperFunction,SMDPad,CuDef*%
%ADD26RoundRect,0.075000X-0.700000X-0.075000X0.700000X-0.075000X0.700000X0.075000X-0.700000X0.075000X0*%
%TD*%
%TA.AperFunction,SMDPad,CuDef*%
%ADD27RoundRect,0.075000X-0.075000X-0.700000X0.075000X-0.700000X0.075000X0.700000X-0.075000X0.700000X0*%
%TD*%
%TA.AperFunction,SMDPad,CuDef*%
%ADD28RoundRect,0.218750X-0.256250X0.218750X-0.256250X-0.218750X0.256250X-0.218750X0.256250X0.218750X0*%
%TD*%
%TA.AperFunction,SMDPad,CuDef*%
%ADD29RoundRect,0.225000X-0.250000X0.225000X-0.250000X-0.225000X0.250000X-0.225000X0.250000X0.225000X0*%
%TD*%
%TA.AperFunction,SMDPad,CuDef*%
%ADD30R,1.000000X0.800000*%
%TD*%
%TA.AperFunction,SMDPad,CuDef*%
%ADD31R,0.700000X1.500000*%
%TD*%
%TA.AperFunction,SMDPad,CuDef*%
%ADD32RoundRect,0.218750X0.218750X0.256250X-0.218750X0.256250X-0.218750X-0.256250X0.218750X-0.256250X0*%
%TD*%
%TA.AperFunction,ViaPad*%
%ADD33C,0.600000*%
%TD*%
%TA.AperFunction,Conductor*%
%ADD34C,0.300000*%
%TD*%
%TA.AperFunction,Conductor*%
%ADD35C,0.200000*%
%TD*%
%TA.AperFunction,Conductor*%
%ADD36C,0.500000*%
%TD*%
G04 APERTURE END LIST*
D10*
%TO.P,C9,1*%
%TO.N,+3.3V*%
X128775000Y-79000000D03*
%TO.P,C9,2*%
%TO.N,GND*%
X127225000Y-79000000D03*
%TD*%
D11*
%TO.P,C2,1*%
%TO.N,Net-(U1-VCAP_1)*%
X130225000Y-77500000D03*
%TO.P,C2,2*%
%TO.N,GND*%
X131775000Y-77500000D03*
%TD*%
D12*
%TO.P,J1,1,VBUS*%
%TO.N,+5V*%
X138537500Y-70300000D03*
%TO.P,J1,2,D-*%
%TO.N,/USB_D-*%
X138537500Y-69650000D03*
%TO.P,J1,3,D+*%
%TO.N,/USB_D+*%
X138537500Y-69000000D03*
%TO.P,J1,4,ID*%
%TO.N,unconnected-(J1-ID-Pad4)*%
X138537500Y-68350000D03*
%TO.P,J1,5,GND*%
%TO.N,GND*%
X138537500Y-67700000D03*
D13*
%TO.P,J1,6,Shield*%
%TO.N,unconnected-(J1-Shield-Pad6)*%
X141237500Y-72500000D03*
D14*
X141237500Y-71900000D03*
D15*
X138537500Y-71500000D03*
D16*
X141237500Y-70000000D03*
X141237500Y-68000000D03*
D15*
X138537500Y-66500000D03*
D14*
X141237500Y-66100000D03*
D13*
X141237500Y-65500000D03*
%TD*%
D17*
%TO.P,R1,1*%
%TO.N,Net-(SW2-B)*%
X122925000Y-57250000D03*
%TO.P,R1,2*%
%TO.N,Net-(U1-BOOT0)*%
X124575000Y-57250000D03*
%TD*%
D18*
%TO.P,J_SWD1,1,Pin_1*%
%TO.N,+3.3V*%
X110250000Y-66080000D03*
D19*
%TO.P,J_SWD1,2,Pin_2*%
%TO.N,Net-(J_SWD1-Pin_2)*%
X110250000Y-63540000D03*
%TO.P,J_SWD1,3,Pin_3*%
%TO.N,Net-(J_SWD1-Pin_3)*%
X110250000Y-61000000D03*
%TO.P,J_SWD1,4,Pin_4*%
%TO.N,GND*%
X110250000Y-58460000D03*
%TO.P,J_SWD1,5,Pin_5*%
%TO.N,/NRST*%
X110250000Y-55920000D03*
%TD*%
D20*
%TO.P,U2,1,GND*%
%TO.N,GND*%
X137850000Y-76200000D03*
%TO.P,U2,2,VO*%
%TO.N,+3.3V*%
X137850000Y-78500000D03*
D21*
X144150000Y-78500000D03*
D20*
%TO.P,U2,3,VI*%
%TO.N,+5V*%
X137850000Y-80800000D03*
%TD*%
D17*
%TO.P,R2,1*%
%TO.N,GND*%
X125675000Y-83000000D03*
%TO.P,R2,2*%
%TO.N,Net-(D2-K)*%
X127325000Y-83000000D03*
%TD*%
D11*
%TO.P,C10,1*%
%TO.N,+3.3V*%
X121200000Y-60750000D03*
%TO.P,C10,2*%
%TO.N,GND*%
X122750000Y-60750000D03*
%TD*%
D10*
%TO.P,C12,1*%
%TO.N,+3.3V*%
X117275000Y-77500000D03*
%TO.P,C12,2*%
%TO.N,GND*%
X115725000Y-77500000D03*
%TD*%
D22*
%TO.P,SW3,1,1*%
%TO.N,Net-(C16-Pad1)*%
X109750000Y-84000000D03*
%TO.P,SW3,2,2*%
%TO.N,/NRST*%
X109750000Y-78000000D03*
%TD*%
D17*
%TO.P,R3,1*%
%TO.N,+3.3V*%
X132675000Y-64000000D03*
%TO.P,R3,2*%
%TO.N,Net-(U1-PA13)*%
X134325000Y-64000000D03*
%TD*%
D11*
%TO.P,C5,1*%
%TO.N,+3.3V*%
X133725000Y-75000000D03*
%TO.P,C5,2*%
%TO.N,GND*%
X135275000Y-75000000D03*
%TD*%
%TO.P,C1,1*%
%TO.N,+3.3V*%
X133725000Y-78000000D03*
%TO.P,C1,2*%
%TO.N,GND*%
X135275000Y-78000000D03*
%TD*%
%TO.P,C4,1*%
%TO.N,+5V*%
X133725000Y-81000000D03*
%TO.P,C4,2*%
%TO.N,GND*%
X135275000Y-81000000D03*
%TD*%
D10*
%TO.P,C14,1*%
%TO.N,+3.3V*%
X117275000Y-79500000D03*
%TO.P,C14,2*%
%TO.N,GND*%
X115725000Y-79500000D03*
%TD*%
D23*
%TO.P,C13,1*%
%TO.N,GND*%
X114500000Y-73275000D03*
%TO.P,C13,2*%
%TO.N,Net-(U1-PH1)*%
X114500000Y-71725000D03*
%TD*%
D24*
%TO.P,SW1,1,1*%
%TO.N,GND*%
X126000000Y-60000000D03*
%TO.P,SW1,2,2*%
%TO.N,Net-(U1-PA13)*%
X132000000Y-60000000D03*
%TD*%
D11*
%TO.P,C16,1*%
%TO.N,Net-(C16-Pad1)*%
X121225000Y-79500000D03*
%TO.P,C16,2*%
%TO.N,GND*%
X122775000Y-79500000D03*
%TD*%
D25*
%TO.P,Y1,1,1*%
%TO.N,Net-(U1-PH1)*%
X110500000Y-73350000D03*
%TO.P,Y1,2,2*%
%TO.N,Net-(U1-PH0)*%
X110500000Y-69650000D03*
%TD*%
D26*
%TO.P,U1,1,VBAT*%
%TO.N,+3.3V*%
X119325000Y-67250000D03*
%TO.P,U1,2,PC13*%
%TO.N,Net-(J_SWD1-Pin_2)*%
X119325000Y-67750000D03*
%TO.P,U1,3,PC14*%
%TO.N,Net-(J_SWD1-Pin_3)*%
X119325000Y-68250000D03*
%TO.P,U1,4,PC15*%
%TO.N,unconnected-(U1-PC15-Pad4)*%
X119325000Y-68750000D03*
%TO.P,U1,5,PH0*%
%TO.N,Net-(U1-PH0)*%
X119325000Y-69250000D03*
%TO.P,U1,6,PH1*%
%TO.N,Net-(U1-PH1)*%
X119325000Y-69750000D03*
%TO.P,U1,7,NRST*%
%TO.N,/NRST*%
X119325000Y-70250000D03*
%TO.P,U1,8,PC0*%
%TO.N,unconnected-(U1-PC0-Pad8)*%
X119325000Y-70750000D03*
%TO.P,U1,9,PC1*%
%TO.N,unconnected-(U1-PC1-Pad9)*%
X119325000Y-71250000D03*
%TO.P,U1,10,PC2*%
%TO.N,unconnected-(U1-PC2-Pad10)*%
X119325000Y-71750000D03*
%TO.P,U1,11,PC3*%
%TO.N,unconnected-(U1-PC3-Pad11)*%
X119325000Y-72250000D03*
%TO.P,U1,12,VSSA*%
%TO.N,GND*%
X119325000Y-72750000D03*
%TO.P,U1,13,VDDA*%
%TO.N,+3.3V*%
X119325000Y-73250000D03*
%TO.P,U1,14,PA0*%
%TO.N,unconnected-(U1-PA0-Pad14)*%
X119325000Y-73750000D03*
%TO.P,U1,15,PA1*%
%TO.N,unconnected-(U1-PA1-Pad15)*%
X119325000Y-74250000D03*
%TO.P,U1,16,PA2*%
%TO.N,Net-(J2-Pin_1)*%
X119325000Y-74750000D03*
D27*
%TO.P,U1,17,PA3*%
%TO.N,Net-(J2-Pin_2)*%
X121250000Y-76675000D03*
%TO.P,U1,18,VSS*%
%TO.N,GND*%
X121750000Y-76675000D03*
%TO.P,U1,19,VDD*%
%TO.N,+3.3V*%
X122250000Y-76675000D03*
%TO.P,U1,20,PA4*%
%TO.N,unconnected-(U1-PA4-Pad20)*%
X122750000Y-76675000D03*
%TO.P,U1,21,PA5*%
%TO.N,Net-(D2-A)*%
X123250000Y-76675000D03*
%TO.P,U1,22,PA6*%
%TO.N,unconnected-(U1-PA6-Pad22)*%
X123750000Y-76675000D03*
%TO.P,U1,23,PA7*%
%TO.N,unconnected-(U1-PA7-Pad23)*%
X124250000Y-76675000D03*
%TO.P,U1,24,PC4*%
%TO.N,unconnected-(U1-PC4-Pad24)*%
X124750000Y-76675000D03*
%TO.P,U1,25,PC5*%
%TO.N,unconnected-(U1-PC5-Pad25)*%
X125250000Y-76675000D03*
%TO.P,U1,26,PB0*%
%TO.N,unconnected-(U1-PB0-Pad26)*%
X125750000Y-76675000D03*
%TO.P,U1,27,PB1*%
%TO.N,unconnected-(U1-PB1-Pad27)*%
X126250000Y-76675000D03*
%TO.P,U1,28,PB2*%
%TO.N,unconnected-(U1-PB2-Pad28)*%
X126750000Y-76675000D03*
%TO.P,U1,29,PB10*%
%TO.N,unconnected-(U1-PB10-Pad29)*%
X127250000Y-76675000D03*
%TO.P,U1,30,VCAP_1*%
%TO.N,Net-(U1-VCAP_1)*%
X127750000Y-76675000D03*
%TO.P,U1,31,VSS*%
%TO.N,GND*%
X128250000Y-76675000D03*
%TO.P,U1,32,VDD*%
%TO.N,+3.3V*%
X128750000Y-76675000D03*
D26*
%TO.P,U1,33,PB12*%
%TO.N,unconnected-(U1-PB12-Pad33)*%
X130675000Y-74750000D03*
%TO.P,U1,34,PB13*%
%TO.N,unconnected-(U1-PB13-Pad34)*%
X130675000Y-74250000D03*
%TO.P,U1,35,PB14*%
%TO.N,unconnected-(U1-PB14-Pad35)*%
X130675000Y-73750000D03*
%TO.P,U1,36,PB15*%
%TO.N,unconnected-(U1-PB15-Pad36)*%
X130675000Y-73250000D03*
%TO.P,U1,37,PC6*%
%TO.N,unconnected-(U1-PC6-Pad37)*%
X130675000Y-72750000D03*
%TO.P,U1,38,PC7*%
%TO.N,unconnected-(U1-PC7-Pad38)*%
X130675000Y-72250000D03*
%TO.P,U1,39,PC8*%
%TO.N,unconnected-(U1-PC8-Pad39)*%
X130675000Y-71750000D03*
%TO.P,U1,40,PC9*%
%TO.N,unconnected-(U1-PC9-Pad40)*%
X130675000Y-71250000D03*
%TO.P,U1,41,PA8*%
%TO.N,unconnected-(U1-PA8-Pad41)*%
X130675000Y-70750000D03*
%TO.P,U1,42,PA9*%
%TO.N,unconnected-(U1-PA9-Pad42)*%
X130675000Y-70250000D03*
%TO.P,U1,43,PA10*%
%TO.N,unconnected-(U1-PA10-Pad43)*%
X130675000Y-69750000D03*
%TO.P,U1,44,PA11*%
%TO.N,/USB_D-*%
X130675000Y-69250000D03*
%TO.P,U1,45,PA12*%
%TO.N,/USB_D+*%
X130675000Y-68750000D03*
%TO.P,U1,46,PA13*%
%TO.N,Net-(U1-PA13)*%
X130675000Y-68250000D03*
%TO.P,U1,47,VSS*%
%TO.N,GND*%
X130675000Y-67750000D03*
%TO.P,U1,48,VDD*%
%TO.N,+3.3V*%
X130675000Y-67250000D03*
D27*
%TO.P,U1,49,PA14*%
%TO.N,unconnected-(U1-PA14-Pad49)*%
X128750000Y-65325000D03*
%TO.P,U1,50,PA15*%
%TO.N,unconnected-(U1-PA15-Pad50)*%
X128250000Y-65325000D03*
%TO.P,U1,51,PC10*%
%TO.N,unconnected-(U1-PC10-Pad51)*%
X127750000Y-65325000D03*
%TO.P,U1,52,PC11*%
%TO.N,unconnected-(U1-PC11-Pad52)*%
X127250000Y-65325000D03*
%TO.P,U1,53,PC12*%
%TO.N,unconnected-(U1-PC12-Pad53)*%
X126750000Y-65325000D03*
%TO.P,U1,54,PD2*%
%TO.N,unconnected-(U1-PD2-Pad54)*%
X126250000Y-65325000D03*
%TO.P,U1,55,PB3*%
%TO.N,unconnected-(U1-PB3-Pad55)*%
X125750000Y-65325000D03*
%TO.P,U1,56,PB4*%
%TO.N,unconnected-(U1-PB4-Pad56)*%
X125250000Y-65325000D03*
%TO.P,U1,57,PB5*%
%TO.N,unconnected-(U1-PB5-Pad57)*%
X124750000Y-65325000D03*
%TO.P,U1,58,PB6*%
%TO.N,unconnected-(U1-PB6-Pad58)*%
X124250000Y-65325000D03*
%TO.P,U1,59,PB7*%
%TO.N,unconnected-(U1-PB7-Pad59)*%
X123750000Y-65325000D03*
%TO.P,U1,60,BOOT0*%
%TO.N,Net-(U1-BOOT0)*%
X123250000Y-65325000D03*
%TO.P,U1,61,PB8*%
%TO.N,unconnected-(U1-PB8-Pad61)*%
X122750000Y-65325000D03*
%TO.P,U1,62,PB9*%
%TO.N,unconnected-(U1-PB9-Pad62)*%
X122250000Y-65325000D03*
%TO.P,U1,63,VSS*%
%TO.N,GND*%
X121750000Y-65325000D03*
%TO.P,U1,64,VDD*%
%TO.N,+3.3V*%
X121250000Y-65325000D03*
%TD*%
D11*
%TO.P,C6,1*%
%TO.N,+3.3V*%
X121225000Y-63000000D03*
%TO.P,C6,2*%
%TO.N,GND*%
X122775000Y-63000000D03*
%TD*%
D28*
%TO.P,FB1,1*%
%TO.N,+3.3V*%
X119000000Y-77712500D03*
%TO.P,FB1,2*%
X119000000Y-79287500D03*
%TD*%
D23*
%TO.P,C11,1*%
%TO.N,+3.3V*%
X116750000Y-74275000D03*
%TO.P,C11,2*%
%TO.N,GND*%
X116750000Y-72725000D03*
%TD*%
D18*
%TO.P,J2,1,Pin_1*%
%TO.N,Net-(J2-Pin_1)*%
X116960000Y-84000000D03*
D19*
%TO.P,J2,2,Pin_2*%
%TO.N,Net-(J2-Pin_2)*%
X119500000Y-84000000D03*
%TO.P,J2,3,Pin_3*%
%TO.N,GND*%
X122040000Y-84000000D03*
%TD*%
D29*
%TO.P,C7,1*%
%TO.N,+3.3V*%
X135250000Y-65725000D03*
%TO.P,C7,2*%
%TO.N,GND*%
X135250000Y-67275000D03*
%TD*%
%TO.P,C15,1*%
%TO.N,GND*%
X114500000Y-68225000D03*
%TO.P,C15,2*%
%TO.N,Net-(U1-PH0)*%
X114500000Y-69775000D03*
%TD*%
D30*
%TO.P,SW2,*%
%TO.N,*%
X120650000Y-57030000D03*
X120650000Y-54820000D03*
X113350000Y-57030000D03*
X113350000Y-54820000D03*
D31*
%TO.P,SW2,1,A*%
%TO.N,GND*%
X119250000Y-57680000D03*
%TO.P,SW2,2,B*%
%TO.N,Net-(SW2-B)*%
X116250000Y-57680000D03*
%TO.P,SW2,3,C*%
%TO.N,+3.3V*%
X114750000Y-57680000D03*
%TD*%
D10*
%TO.P,C8,1*%
%TO.N,+3.3V*%
X118775000Y-65500000D03*
%TO.P,C8,2*%
%TO.N,GND*%
X117225000Y-65500000D03*
%TD*%
D32*
%TO.P,D2,1,K*%
%TO.N,Net-(D2-K)*%
X127287500Y-85000000D03*
%TO.P,D2,2,A*%
%TO.N,Net-(D2-A)*%
X125712500Y-85000000D03*
%TD*%
D33*
%TO.N,/NRST*%
X120600000Y-74275907D03*
X120790689Y-72000000D03*
%TO.N,+3.3V*%
X141500000Y-78500000D03*
X139500000Y-78500000D03*
%TO.N,GND*%
X114500000Y-74500000D03*
X127000000Y-80500000D03*
X133750000Y-67500000D03*
X113250000Y-68250000D03*
X114500000Y-77500000D03*
X122000000Y-74500000D03*
X132350000Y-67600000D03*
X131500000Y-79000000D03*
X107500000Y-58500000D03*
X137500000Y-74500000D03*
X135500000Y-82500000D03*
X123000000Y-81000000D03*
X123000000Y-86000000D03*
X135500000Y-77000000D03*
X116000000Y-65000000D03*
X120250000Y-58000000D03*
X135500000Y-76000000D03*
X123250000Y-59500000D03*
X115000000Y-81000000D03*
X138500000Y-74500000D03*
X127750000Y-60000000D03*
X124500000Y-83000000D03*
%TO.N,+3.3V*%
X117000000Y-76250000D03*
X118500000Y-63250000D03*
X113000000Y-73500000D03*
X128719893Y-73750000D03*
X116250000Y-69000000D03*
X117459620Y-67040380D03*
X132000000Y-65750000D03*
X113000000Y-72000000D03*
X118500000Y-64650000D03*
X116165380Y-70665380D03*
X130000000Y-75500000D03*
X133750000Y-66250000D03*
X128500000Y-75400000D03*
X118750000Y-76750000D03*
%TO.N,Net-(J2-Pin_1)*%
X120107353Y-77357353D03*
X121250000Y-80750000D03*
X118000000Y-74750000D03*
X120250000Y-79499000D03*
%TD*%
D34*
%TO.N,+3.3V*%
X121249000Y-74330346D02*
X121750000Y-73829346D01*
X121249000Y-75001000D02*
X121249000Y-74330346D01*
X120750000Y-75500000D02*
X121249000Y-75001000D01*
X121750000Y-73829346D02*
X121750000Y-73250000D01*
X121750000Y-73250000D02*
X122500000Y-73250000D01*
X120750000Y-75795466D02*
X120750000Y-75500000D01*
X119000000Y-77545466D02*
X120750000Y-75795466D01*
X119000000Y-77712500D02*
X119000000Y-77545466D01*
%TO.N,/NRST*%
X120574093Y-74250000D02*
X120600000Y-74275907D01*
X120451000Y-74299000D02*
X120500000Y-74250000D01*
X120451000Y-75003534D02*
X120451000Y-74299000D01*
X120500000Y-74250000D02*
X120574093Y-74250000D01*
%TO.N,+3.3V*%
X122500000Y-73250000D02*
X123000000Y-73750000D01*
X119325000Y-73250000D02*
X121750000Y-73250000D01*
%TO.N,/NRST*%
X120790689Y-72000000D02*
X120790689Y-70790689D01*
X120790689Y-70790689D02*
X120250000Y-70250000D01*
D35*
%TO.N,unconnected-(J1-Shield-Pad6)*%
X141237500Y-70000000D02*
X141237500Y-71900000D01*
X141237500Y-68000000D02*
X141237500Y-70000000D01*
X141237500Y-66100000D02*
X141237500Y-68000000D01*
X140837500Y-66500000D02*
X141237500Y-66100000D01*
X138537500Y-66500000D02*
X140837500Y-66500000D01*
X140837500Y-71500000D02*
X141237500Y-71900000D01*
X138537500Y-71500000D02*
X140837500Y-71500000D01*
D34*
%TO.N,+5V*%
X140200000Y-80800000D02*
X137850000Y-80800000D01*
X140250000Y-80750000D02*
X140200000Y-80800000D01*
X136500000Y-72893917D02*
X139936500Y-72893917D01*
X136500000Y-70500000D02*
X136500000Y-72893917D01*
X140250000Y-73207417D02*
X140250000Y-80750000D01*
X138015806Y-70500000D02*
X136500000Y-70500000D01*
X139936500Y-72893917D02*
X140250000Y-73207417D01*
X138091806Y-70424000D02*
X138015806Y-70500000D01*
X138413500Y-70424000D02*
X138091806Y-70424000D01*
X138537500Y-70300000D02*
X138413500Y-70424000D01*
%TO.N,+3.3V*%
X141500000Y-78500000D02*
X144150000Y-78500000D01*
X137850000Y-78500000D02*
X139500000Y-78500000D01*
%TO.N,Net-(J2-Pin_2)*%
X124349000Y-81651000D02*
X125000000Y-81000000D01*
X119500000Y-84000000D02*
X121849000Y-81651000D01*
X121849000Y-81651000D02*
X124349000Y-81651000D01*
%TO.N,GND*%
X121750000Y-64250000D02*
X122000000Y-64000000D01*
X121750000Y-76675000D02*
X121750000Y-74750000D01*
D36*
X137850000Y-76200000D02*
X137850000Y-74850000D01*
D34*
X114500000Y-68225000D02*
X113275000Y-68225000D01*
X126000000Y-60000000D02*
X127750000Y-60000000D01*
X137000000Y-67700000D02*
X136575000Y-67275000D01*
D36*
X135275000Y-75000000D02*
X135500000Y-75000000D01*
X135275000Y-78000000D02*
X135275000Y-77225000D01*
D34*
X128250000Y-76675000D02*
X128250000Y-77750000D01*
X128000000Y-78000000D02*
X127500000Y-78000000D01*
X130675000Y-67750000D02*
X132250000Y-67750000D01*
D36*
X115000000Y-81000000D02*
X115725000Y-80275000D01*
X137850000Y-74850000D02*
X137500000Y-74500000D01*
X135275000Y-81000000D02*
X135275000Y-82275000D01*
D34*
X121750000Y-74750000D02*
X122000000Y-74500000D01*
X138537500Y-67700000D02*
X137000000Y-67700000D01*
X127225000Y-80275000D02*
X127000000Y-80500000D01*
X127225000Y-78275000D02*
X127225000Y-79000000D01*
X113275000Y-68225000D02*
X113250000Y-68250000D01*
X122750000Y-60750000D02*
X122750000Y-60000000D01*
D36*
X135275000Y-77225000D02*
X135500000Y-77000000D01*
D34*
X107540000Y-58460000D02*
X107500000Y-58500000D01*
X122750000Y-62975000D02*
X122775000Y-63000000D01*
X123000000Y-84960000D02*
X123000000Y-86000000D01*
X127225000Y-79000000D02*
X127225000Y-80275000D01*
D36*
X135275000Y-75000000D02*
X135275000Y-75775000D01*
D34*
X122775000Y-63000000D02*
X122775000Y-63725000D01*
D36*
X114500000Y-73275000D02*
X116200000Y-73275000D01*
X125675000Y-83000000D02*
X124500000Y-83000000D01*
D34*
X110250000Y-58460000D02*
X107540000Y-58460000D01*
D36*
X122775000Y-80775000D02*
X123000000Y-81000000D01*
D34*
X122040000Y-84000000D02*
X123000000Y-84960000D01*
X136575000Y-67275000D02*
X135250000Y-67275000D01*
D36*
X115725000Y-77500000D02*
X114500000Y-77500000D01*
X131775000Y-77500000D02*
X131775000Y-78725000D01*
D34*
X122000000Y-64000000D02*
X122500000Y-64000000D01*
D36*
X115725000Y-80275000D02*
X115725000Y-79500000D01*
X122775000Y-79500000D02*
X122775000Y-80775000D01*
X116200000Y-73275000D02*
X116750000Y-72725000D01*
D34*
X119325000Y-72750000D02*
X116775000Y-72750000D01*
X122750000Y-60000000D02*
X123250000Y-59500000D01*
X119570000Y-58000000D02*
X120250000Y-58000000D01*
X132250000Y-67750000D02*
X132400000Y-67600000D01*
D36*
X131775000Y-78725000D02*
X131500000Y-79000000D01*
D34*
X128250000Y-77750000D02*
X128000000Y-78000000D01*
X135025000Y-67500000D02*
X135250000Y-67275000D01*
X119250000Y-57680000D02*
X119570000Y-58000000D01*
X133750000Y-67500000D02*
X135025000Y-67500000D01*
X122500000Y-64000000D02*
X122775000Y-63725000D01*
D36*
X114500000Y-73275000D02*
X114500000Y-74500000D01*
X135275000Y-82275000D02*
X135500000Y-82500000D01*
D34*
X121750000Y-65325000D02*
X121750000Y-64250000D01*
X117225000Y-65500000D02*
X116500000Y-65500000D01*
X116500000Y-65500000D02*
X116000000Y-65000000D01*
D36*
X135275000Y-75775000D02*
X135500000Y-76000000D01*
D34*
X127500000Y-78000000D02*
X127225000Y-78275000D01*
X132400000Y-67600000D02*
X132350000Y-67600000D01*
X122750000Y-60750000D02*
X122750000Y-62975000D01*
X116775000Y-72750000D02*
X116750000Y-72725000D01*
%TO.N,+3.3V*%
X118775000Y-64925000D02*
X118500000Y-64650000D01*
X121225000Y-63000000D02*
X121225000Y-63975000D01*
X119325000Y-73250000D02*
X118250000Y-73250000D01*
X113000000Y-71904201D02*
X113000000Y-72000000D01*
X119000000Y-79287500D02*
X119000000Y-77712500D01*
X137850000Y-78500000D02*
X137524000Y-78826000D01*
X134550000Y-65725000D02*
X135250000Y-65725000D01*
X117770000Y-61750000D02*
X121200000Y-61750000D01*
X137524000Y-78826000D02*
X134551000Y-78826000D01*
X117000000Y-76250000D02*
X117000000Y-77225000D01*
X118775000Y-66000000D02*
X119325000Y-66550000D01*
X134025000Y-66250000D02*
X134550000Y-65725000D01*
X118250000Y-73250000D02*
X117225000Y-74275000D01*
X115750000Y-69000000D02*
X116250000Y-69000000D01*
X118775000Y-65500000D02*
X118775000Y-64925000D01*
X117225000Y-74275000D02*
X116750000Y-74275000D01*
X133225000Y-75500000D02*
X130000000Y-75500000D01*
X117275000Y-77500000D02*
X117275000Y-77144240D01*
X133725000Y-78000000D02*
X133725000Y-75000000D01*
X145000000Y-77650000D02*
X144150000Y-78500000D01*
X132000000Y-65925000D02*
X130675000Y-67250000D01*
X117459620Y-67040380D02*
X119115380Y-67040380D01*
X117000000Y-77225000D02*
X117275000Y-77500000D01*
X118775000Y-65500000D02*
X118775000Y-66000000D01*
X115931521Y-74275000D02*
X116750000Y-74275000D01*
X128719893Y-73750000D02*
X128719893Y-73969893D01*
X128998000Y-73750000D02*
X128998000Y-67752000D01*
X119325000Y-66550000D02*
X119325000Y-67250000D01*
X129000000Y-67250000D02*
X129000000Y-67750000D01*
X114750000Y-57680000D02*
X114750000Y-58730000D01*
X128750000Y-76675000D02*
X128750000Y-78975000D01*
X113870380Y-66080000D02*
X115750000Y-67959620D01*
X128500000Y-75400000D02*
X128751000Y-75651000D01*
X128998000Y-73750000D02*
X123000000Y-73750000D01*
X121250000Y-65325000D02*
X121250000Y-64000000D01*
X120975000Y-63250000D02*
X121225000Y-63000000D01*
X132000000Y-65750000D02*
X132000000Y-65925000D01*
X121200000Y-62975000D02*
X121225000Y-63000000D01*
X132675000Y-64000000D02*
X132675000Y-65075000D01*
X110250000Y-66080000D02*
X113870380Y-66080000D01*
X123000000Y-74750000D02*
X123000000Y-73750000D01*
X122250000Y-75500000D02*
X123000000Y-74750000D01*
X114238821Y-70665380D02*
X113000000Y-71904201D01*
X121200000Y-61750000D02*
X121200000Y-62975000D01*
X113000000Y-73500000D02*
X113000000Y-75500000D01*
X132675000Y-65075000D02*
X132000000Y-65750000D01*
X133750000Y-66250000D02*
X134025000Y-66250000D01*
X117275000Y-79500000D02*
X118787500Y-79500000D01*
X116165380Y-70665380D02*
X114238821Y-70665380D01*
X121225000Y-63975000D02*
X121250000Y-64000000D01*
X119000000Y-77712500D02*
X119000000Y-77000000D01*
X117275000Y-77144240D02*
X117250000Y-77119240D01*
X128719893Y-73750000D02*
X128998000Y-73750000D01*
X133725000Y-75000000D02*
X133225000Y-75500000D01*
X113000000Y-75500000D02*
X114706521Y-75500000D01*
X134551000Y-78826000D02*
X133725000Y-78000000D01*
X119115380Y-67040380D02*
X119325000Y-67250000D01*
X122250000Y-75500000D02*
X122250000Y-76675000D01*
X128998000Y-67752000D02*
X129000000Y-67750000D01*
X121200000Y-60750000D02*
X121200000Y-61750000D01*
X114750000Y-58730000D02*
X117770000Y-61750000D01*
X130000000Y-75500000D02*
X130000000Y-75493675D01*
X119000000Y-77000000D02*
X118750000Y-76750000D01*
X114706521Y-75500000D02*
X115931521Y-74275000D01*
X128750000Y-78975000D02*
X128775000Y-79000000D01*
X128751000Y-75651000D02*
X128751000Y-76675000D01*
X115750000Y-67959620D02*
X115750000Y-69000000D01*
X118787500Y-79500000D02*
X119000000Y-79287500D01*
X133475000Y-75250000D02*
X133725000Y-75000000D01*
X118500000Y-63250000D02*
X120975000Y-63250000D01*
X130675000Y-67250000D02*
X129000000Y-67250000D01*
%TO.N,Net-(U1-VCAP_1)*%
X127750000Y-74852267D02*
X127750000Y-76675000D01*
X129252000Y-76252000D02*
X129252000Y-75231346D01*
X130225000Y-77500000D02*
X130225000Y-77225000D01*
X130225000Y-77225000D02*
X129252000Y-76252000D01*
X129252000Y-75231346D02*
X128770654Y-74750000D01*
X127852267Y-74750000D02*
X127750000Y-74852267D01*
X128770654Y-74750000D02*
X127852267Y-74750000D01*
%TO.N,+5V*%
X137224000Y-80174000D02*
X137850000Y-80800000D01*
X134551000Y-80174000D02*
X137224000Y-80174000D01*
X133725000Y-81000000D02*
X134551000Y-80174000D01*
%TO.N,Net-(U1-PH1)*%
X116275000Y-71725000D02*
X114500000Y-71725000D01*
X119325000Y-69750000D02*
X118250000Y-69750000D01*
X114500000Y-71725000D02*
X114225000Y-71725000D01*
X114225000Y-71725000D02*
X113100000Y-72850000D01*
X113100000Y-72850000D02*
X111000000Y-72850000D01*
X118250000Y-69750000D02*
X116275000Y-71725000D01*
%TO.N,Net-(U1-PH0)*%
X114500000Y-69775000D02*
X114275000Y-69775000D01*
X117750000Y-69250000D02*
X117225000Y-69775000D01*
X114275000Y-69775000D02*
X113650000Y-69150000D01*
X119325000Y-69250000D02*
X117750000Y-69250000D01*
X117225000Y-69775000D02*
X114500000Y-69775000D01*
X113650000Y-69150000D02*
X111000000Y-69150000D01*
%TO.N,Net-(C16-Pad1)*%
X120576000Y-80149000D02*
X121225000Y-79500000D01*
X112625000Y-82375000D02*
X111375000Y-82375000D01*
X117000000Y-82250000D02*
X117023252Y-82273252D01*
X112625000Y-82375000D02*
X112750000Y-82250000D01*
X111375000Y-82375000D02*
X109750000Y-84000000D01*
X117023252Y-82273252D02*
X119147504Y-80149000D01*
X119147504Y-80149000D02*
X120576000Y-80149000D01*
X112750000Y-82250000D02*
X117000000Y-82250000D01*
%TO.N,Net-(D2-A)*%
X124457521Y-77999000D02*
X123578346Y-77999000D01*
X125501000Y-79042479D02*
X124457521Y-77999000D01*
X123250000Y-77670654D02*
X123250000Y-76675000D01*
X130250000Y-86250000D02*
X130750000Y-85750000D01*
X125750000Y-86250000D02*
X130250000Y-86250000D01*
X123578346Y-77999000D02*
X123250000Y-77670654D01*
X125712500Y-85000000D02*
X125712500Y-86212500D01*
X130500000Y-85500000D02*
X130500000Y-81500000D01*
X125501000Y-79921654D02*
X125501000Y-79042479D01*
X125712500Y-86212500D02*
X125750000Y-86250000D01*
X130500000Y-81500000D02*
X127079346Y-81500000D01*
X130750000Y-85750000D02*
X130500000Y-85500000D01*
X127079346Y-81500000D02*
X125501000Y-79921654D01*
%TO.N,Net-(D2-K)*%
X127287500Y-85000000D02*
X127287500Y-83037500D01*
X127287500Y-83037500D02*
X127325000Y-83000000D01*
D35*
%TO.N,/USB_D-*%
X132063481Y-69475980D02*
X137536480Y-69475980D01*
X137561500Y-69501000D02*
X138388500Y-69501000D01*
X138388500Y-69501000D02*
X138537500Y-69650000D01*
X130675000Y-69250000D02*
X131837501Y-69250000D01*
X131837501Y-69250000D02*
X132063481Y-69475980D01*
X137536480Y-69475980D02*
X137561500Y-69501000D01*
%TO.N,/USB_D+*%
X138497897Y-69026000D02*
X138523897Y-69000000D01*
X131862501Y-68775000D02*
X132274890Y-68775000D01*
X138523897Y-69000000D02*
X138537500Y-69000000D01*
X132274890Y-68775000D02*
X132525890Y-69026000D01*
X132525890Y-69026000D02*
X138497897Y-69026000D01*
X131837501Y-68750000D02*
X131862501Y-68775000D01*
X130675000Y-68750000D02*
X131837501Y-68750000D01*
D34*
%TO.N,Net-(J2-Pin_2)*%
X121250000Y-76675000D02*
X121250000Y-78500000D01*
X125000000Y-79750000D02*
X125000000Y-81000000D01*
X121250000Y-78500000D02*
X124250000Y-78500000D01*
X124250000Y-79000000D02*
X125000000Y-79750000D01*
X124250000Y-78500000D02*
X124250000Y-79000000D01*
%TO.N,Net-(J2-Pin_1)*%
X120107353Y-77357353D02*
X120107353Y-79356353D01*
X116960000Y-84000000D02*
X117000000Y-84000000D01*
X120000000Y-81000000D02*
X121000000Y-81000000D01*
X121000000Y-81000000D02*
X121250000Y-80750000D01*
X117000000Y-84000000D02*
X120000000Y-81000000D01*
X120107353Y-79356353D02*
X120250000Y-79499000D01*
X118000000Y-74750000D02*
X119325000Y-74750000D01*
%TO.N,Net-(J_SWD1-Pin_2)*%
X109801529Y-59750000D02*
X112000000Y-59750000D01*
X120204534Y-67750000D02*
X119325000Y-67750000D01*
X117250000Y-67750000D02*
X119325000Y-67750000D01*
X109049000Y-62339000D02*
X109049000Y-60502529D01*
X109049000Y-60502529D02*
X109801529Y-59750000D01*
X113000000Y-60750000D02*
X113000000Y-63500000D01*
X110250000Y-63540000D02*
X109049000Y-62339000D01*
X113000000Y-63500000D02*
X117250000Y-67750000D01*
X112000000Y-59750000D02*
X113000000Y-60750000D01*
%TO.N,/NRST*%
X120750000Y-69750000D02*
X120750000Y-67000000D01*
X118076000Y-77994822D02*
X117744822Y-78326000D01*
X117744822Y-78326000D02*
X111326000Y-78326000D01*
X120451000Y-75003534D02*
X120203534Y-75251000D01*
X120203534Y-75251000D02*
X119499000Y-75251000D01*
X112250000Y-58500000D02*
X112750000Y-59000000D01*
X118076000Y-76174000D02*
X118076000Y-77994822D01*
X118183620Y-76066380D02*
X118076000Y-76174000D01*
X119499000Y-75251000D02*
X118683620Y-76066380D01*
X118683620Y-76066380D02*
X118183620Y-76066380D01*
X110250000Y-55920000D02*
X112250000Y-57920000D01*
X111326000Y-78326000D02*
X111000000Y-78000000D01*
X120250000Y-70250000D02*
X119325000Y-70250000D01*
X114250000Y-64000000D02*
X119250000Y-64000000D01*
X120750000Y-69750000D02*
X120250000Y-70250000D01*
X120250000Y-66500000D02*
X120250000Y-65000000D01*
X120750000Y-67000000D02*
X120250000Y-66500000D01*
X112250000Y-57920000D02*
X112250000Y-58500000D01*
X111000000Y-78000000D02*
X109750000Y-78000000D01*
X114250000Y-59000000D02*
X114250000Y-64000000D01*
X112750000Y-59000000D02*
X114250000Y-59000000D01*
X120250000Y-65000000D02*
X119250000Y-64000000D01*
%TO.N,Net-(J_SWD1-Pin_3)*%
X112000000Y-61000000D02*
X110250000Y-61000000D01*
X117000000Y-68250000D02*
X112250000Y-63500000D01*
X112250000Y-63500000D02*
X112250000Y-61250000D01*
X112250000Y-61250000D02*
X112000000Y-61000000D01*
X119325000Y-68250000D02*
X117000000Y-68250000D01*
%TO.N,Net-(U1-BOOT0)*%
X124575000Y-62175000D02*
X124575000Y-57250000D01*
X124500000Y-63000000D02*
X124500000Y-62250000D01*
X123250000Y-65325000D02*
X123250000Y-64250000D01*
X124500000Y-62250000D02*
X124575000Y-62175000D01*
X123250000Y-64250000D02*
X124500000Y-63000000D01*
%TO.N,Net-(SW2-B)*%
X123000000Y-58250000D02*
X122925000Y-58175000D01*
X116250000Y-57680000D02*
X116250000Y-59000000D01*
X122925000Y-58175000D02*
X122925000Y-57250000D01*
X116250000Y-59000000D02*
X122250000Y-59000000D01*
X122250000Y-59000000D02*
X123000000Y-58250000D01*
%TO.N,Net-(U1-PA13)*%
X133000000Y-66000000D02*
X133000000Y-68250000D01*
X134000000Y-65000000D02*
X133000000Y-66000000D01*
X134325000Y-64000000D02*
X134325000Y-64925000D01*
X133000000Y-68250000D02*
X130675000Y-68250000D01*
X132000000Y-60000000D02*
X134325000Y-62325000D01*
X134250000Y-65000000D02*
X134000000Y-65000000D01*
X134325000Y-64925000D02*
X134250000Y-65000000D01*
X134325000Y-62325000D02*
X134325000Y-64000000D01*
%TD*%
%TA.AperFunction,Conductor*%
%TO.N,GND*%
G36*
X138943039Y-73519685D02*
G01*
X138988794Y-73572489D01*
X139000000Y-73624000D01*
X139000000Y-77376000D01*
X138997449Y-77384685D01*
X138998738Y-77393647D01*
X138987759Y-77417687D01*
X138980315Y-77443039D01*
X138973474Y-77448966D01*
X138969713Y-77457203D01*
X138947478Y-77471492D01*
X138927511Y-77488794D01*
X138916996Y-77491081D01*
X138910935Y-77494977D01*
X138876000Y-77500000D01*
X138758740Y-77500000D01*
X138721850Y-77494385D01*
X138597657Y-77455685D01*
X138597659Y-77455685D01*
X138570431Y-77453211D01*
X138529594Y-77449500D01*
X137170406Y-77449500D01*
X137129568Y-77453211D01*
X137102341Y-77455685D01*
X136978150Y-77494385D01*
X136941260Y-77500000D01*
X136000000Y-77500000D01*
X136000000Y-78251500D01*
X135980315Y-78318539D01*
X135927511Y-78364294D01*
X135876000Y-78375500D01*
X134788965Y-78375500D01*
X134759524Y-78366855D01*
X134729538Y-78360332D01*
X134724522Y-78356577D01*
X134721926Y-78355815D01*
X134701284Y-78339181D01*
X134536319Y-78174216D01*
X134502834Y-78112893D01*
X134500000Y-78086535D01*
X134500000Y-73624000D01*
X134519685Y-73556961D01*
X134572489Y-73511206D01*
X134624000Y-73500000D01*
X138876000Y-73500000D01*
X138943039Y-73519685D01*
G37*
%TD.AperFunction*%
%TD*%
M02*
