%TF.GenerationSoftware,KiCad,Pcbnew,9.0.7*%
%TF.CreationDate,2026-02-08T19:34:05+05:30*%
%TF.ProjectId,STM32_Custom_Board_Phase3,53544d33-325f-4437-9573-746f6d5f426f,rev?*%
%TF.SameCoordinates,Original*%
%TF.FileFunction,Legend,Top*%
%TF.FilePolarity,Positive*%
%FSLAX46Y46*%
G04 Gerber Fmt 4.6, Leading zero omitted, Abs format (unit mm)*
G04 Created by KiCad (PCBNEW 9.0.7) date 2026-02-08 19:34:05*
%MOMM*%
%LPD*%
G01*
G04 APERTURE LIST*
%ADD10C,0.080000*%
%ADD11C,0.150000*%
%ADD12C,0.125000*%
%ADD13C,0.120000*%
G04 APERTURE END LIST*
D10*
X127916666Y-80719744D02*
X127892857Y-80757840D01*
X127892857Y-80757840D02*
X127821428Y-80795935D01*
X127821428Y-80795935D02*
X127773809Y-80795935D01*
X127773809Y-80795935D02*
X127702381Y-80757840D01*
X127702381Y-80757840D02*
X127654762Y-80681649D01*
X127654762Y-80681649D02*
X127630952Y-80605459D01*
X127630952Y-80605459D02*
X127607143Y-80453078D01*
X127607143Y-80453078D02*
X127607143Y-80338792D01*
X127607143Y-80338792D02*
X127630952Y-80186411D01*
X127630952Y-80186411D02*
X127654762Y-80110220D01*
X127654762Y-80110220D02*
X127702381Y-80034030D01*
X127702381Y-80034030D02*
X127773809Y-79995935D01*
X127773809Y-79995935D02*
X127821428Y-79995935D01*
X127821428Y-79995935D02*
X127892857Y-80034030D01*
X127892857Y-80034030D02*
X127916666Y-80072125D01*
X128154762Y-80795935D02*
X128250000Y-80795935D01*
X128250000Y-80795935D02*
X128297619Y-80757840D01*
X128297619Y-80757840D02*
X128321428Y-80719744D01*
X128321428Y-80719744D02*
X128369047Y-80605459D01*
X128369047Y-80605459D02*
X128392857Y-80453078D01*
X128392857Y-80453078D02*
X128392857Y-80148316D01*
X128392857Y-80148316D02*
X128369047Y-80072125D01*
X128369047Y-80072125D02*
X128345238Y-80034030D01*
X128345238Y-80034030D02*
X128297619Y-79995935D01*
X128297619Y-79995935D02*
X128202381Y-79995935D01*
X128202381Y-79995935D02*
X128154762Y-80034030D01*
X128154762Y-80034030D02*
X128130952Y-80072125D01*
X128130952Y-80072125D02*
X128107143Y-80148316D01*
X128107143Y-80148316D02*
X128107143Y-80338792D01*
X128107143Y-80338792D02*
X128130952Y-80414982D01*
X128130952Y-80414982D02*
X128154762Y-80453078D01*
X128154762Y-80453078D02*
X128202381Y-80491173D01*
X128202381Y-80491173D02*
X128297619Y-80491173D01*
X128297619Y-80491173D02*
X128345238Y-80453078D01*
X128345238Y-80453078D02*
X128369047Y-80414982D01*
X128369047Y-80414982D02*
X128392857Y-80338792D01*
X130416666Y-79039744D02*
X130392857Y-79077840D01*
X130392857Y-79077840D02*
X130321428Y-79115935D01*
X130321428Y-79115935D02*
X130273809Y-79115935D01*
X130273809Y-79115935D02*
X130202381Y-79077840D01*
X130202381Y-79077840D02*
X130154762Y-79001649D01*
X130154762Y-79001649D02*
X130130952Y-78925459D01*
X130130952Y-78925459D02*
X130107143Y-78773078D01*
X130107143Y-78773078D02*
X130107143Y-78658792D01*
X130107143Y-78658792D02*
X130130952Y-78506411D01*
X130130952Y-78506411D02*
X130154762Y-78430220D01*
X130154762Y-78430220D02*
X130202381Y-78354030D01*
X130202381Y-78354030D02*
X130273809Y-78315935D01*
X130273809Y-78315935D02*
X130321428Y-78315935D01*
X130321428Y-78315935D02*
X130392857Y-78354030D01*
X130392857Y-78354030D02*
X130416666Y-78392125D01*
X130607143Y-78392125D02*
X130630952Y-78354030D01*
X130630952Y-78354030D02*
X130678571Y-78315935D01*
X130678571Y-78315935D02*
X130797619Y-78315935D01*
X130797619Y-78315935D02*
X130845238Y-78354030D01*
X130845238Y-78354030D02*
X130869047Y-78392125D01*
X130869047Y-78392125D02*
X130892857Y-78468316D01*
X130892857Y-78468316D02*
X130892857Y-78544506D01*
X130892857Y-78544506D02*
X130869047Y-78658792D01*
X130869047Y-78658792D02*
X130583333Y-79115935D01*
X130583333Y-79115935D02*
X130892857Y-79115935D01*
X136565935Y-68666666D02*
X137137363Y-68666666D01*
X137137363Y-68666666D02*
X137251649Y-68690475D01*
X137251649Y-68690475D02*
X137327840Y-68738094D01*
X137327840Y-68738094D02*
X137365935Y-68809523D01*
X137365935Y-68809523D02*
X137365935Y-68857142D01*
X137365935Y-68166666D02*
X137365935Y-68452380D01*
X137365935Y-68309523D02*
X136565935Y-68309523D01*
X136565935Y-68309523D02*
X136680220Y-68357142D01*
X136680220Y-68357142D02*
X136756411Y-68404761D01*
X136756411Y-68404761D02*
X136794506Y-68452380D01*
D11*
X123583333Y-56204819D02*
X123250000Y-55728628D01*
X123011905Y-56204819D02*
X123011905Y-55204819D01*
X123011905Y-55204819D02*
X123392857Y-55204819D01*
X123392857Y-55204819D02*
X123488095Y-55252438D01*
X123488095Y-55252438D02*
X123535714Y-55300057D01*
X123535714Y-55300057D02*
X123583333Y-55395295D01*
X123583333Y-55395295D02*
X123583333Y-55538152D01*
X123583333Y-55538152D02*
X123535714Y-55633390D01*
X123535714Y-55633390D02*
X123488095Y-55681009D01*
X123488095Y-55681009D02*
X123392857Y-55728628D01*
X123392857Y-55728628D02*
X123011905Y-55728628D01*
X124535714Y-56204819D02*
X123964286Y-56204819D01*
X124250000Y-56204819D02*
X124250000Y-55204819D01*
X124250000Y-55204819D02*
X124154762Y-55347676D01*
X124154762Y-55347676D02*
X124059524Y-55442914D01*
X124059524Y-55442914D02*
X123964286Y-55490533D01*
X112204819Y-67761904D02*
X112919104Y-67761904D01*
X112919104Y-67761904D02*
X113061961Y-67809523D01*
X113061961Y-67809523D02*
X113157200Y-67904761D01*
X113157200Y-67904761D02*
X113204819Y-68047618D01*
X113204819Y-68047618D02*
X113204819Y-68142856D01*
X113300057Y-67523809D02*
X113300057Y-66761904D01*
X113157200Y-66571427D02*
X113204819Y-66428570D01*
X113204819Y-66428570D02*
X113204819Y-66190475D01*
X113204819Y-66190475D02*
X113157200Y-66095237D01*
X113157200Y-66095237D02*
X113109580Y-66047618D01*
X113109580Y-66047618D02*
X113014342Y-65999999D01*
X113014342Y-65999999D02*
X112919104Y-65999999D01*
X112919104Y-65999999D02*
X112823866Y-66047618D01*
X112823866Y-66047618D02*
X112776247Y-66095237D01*
X112776247Y-66095237D02*
X112728628Y-66190475D01*
X112728628Y-66190475D02*
X112681009Y-66380951D01*
X112681009Y-66380951D02*
X112633390Y-66476189D01*
X112633390Y-66476189D02*
X112585771Y-66523808D01*
X112585771Y-66523808D02*
X112490533Y-66571427D01*
X112490533Y-66571427D02*
X112395295Y-66571427D01*
X112395295Y-66571427D02*
X112300057Y-66523808D01*
X112300057Y-66523808D02*
X112252438Y-66476189D01*
X112252438Y-66476189D02*
X112204819Y-66380951D01*
X112204819Y-66380951D02*
X112204819Y-66142856D01*
X112204819Y-66142856D02*
X112252438Y-65999999D01*
X112204819Y-65666665D02*
X113204819Y-65428570D01*
X113204819Y-65428570D02*
X112490533Y-65238094D01*
X112490533Y-65238094D02*
X113204819Y-65047618D01*
X113204819Y-65047618D02*
X112204819Y-64809523D01*
X113204819Y-64428570D02*
X112204819Y-64428570D01*
X112204819Y-64428570D02*
X112204819Y-64190475D01*
X112204819Y-64190475D02*
X112252438Y-64047618D01*
X112252438Y-64047618D02*
X112347676Y-63952380D01*
X112347676Y-63952380D02*
X112442914Y-63904761D01*
X112442914Y-63904761D02*
X112633390Y-63857142D01*
X112633390Y-63857142D02*
X112776247Y-63857142D01*
X112776247Y-63857142D02*
X112966723Y-63904761D01*
X112966723Y-63904761D02*
X113061961Y-63952380D01*
X113061961Y-63952380D02*
X113157200Y-64047618D01*
X113157200Y-64047618D02*
X113204819Y-64190475D01*
X113204819Y-64190475D02*
X113204819Y-64428570D01*
X113204819Y-62904761D02*
X113204819Y-63476189D01*
X113204819Y-63190475D02*
X112204819Y-63190475D01*
X112204819Y-63190475D02*
X112347676Y-63285713D01*
X112347676Y-63285713D02*
X112442914Y-63380951D01*
X112442914Y-63380951D02*
X112490533Y-63476189D01*
X140238095Y-73454819D02*
X140238095Y-74264342D01*
X140238095Y-74264342D02*
X140285714Y-74359580D01*
X140285714Y-74359580D02*
X140333333Y-74407200D01*
X140333333Y-74407200D02*
X140428571Y-74454819D01*
X140428571Y-74454819D02*
X140619047Y-74454819D01*
X140619047Y-74454819D02*
X140714285Y-74407200D01*
X140714285Y-74407200D02*
X140761904Y-74359580D01*
X140761904Y-74359580D02*
X140809523Y-74264342D01*
X140809523Y-74264342D02*
X140809523Y-73454819D01*
X141238095Y-73550057D02*
X141285714Y-73502438D01*
X141285714Y-73502438D02*
X141380952Y-73454819D01*
X141380952Y-73454819D02*
X141619047Y-73454819D01*
X141619047Y-73454819D02*
X141714285Y-73502438D01*
X141714285Y-73502438D02*
X141761904Y-73550057D01*
X141761904Y-73550057D02*
X141809523Y-73645295D01*
X141809523Y-73645295D02*
X141809523Y-73740533D01*
X141809523Y-73740533D02*
X141761904Y-73883390D01*
X141761904Y-73883390D02*
X141190476Y-74454819D01*
X141190476Y-74454819D02*
X141809523Y-74454819D01*
X128833333Y-83454819D02*
X128500000Y-82978628D01*
X128261905Y-83454819D02*
X128261905Y-82454819D01*
X128261905Y-82454819D02*
X128642857Y-82454819D01*
X128642857Y-82454819D02*
X128738095Y-82502438D01*
X128738095Y-82502438D02*
X128785714Y-82550057D01*
X128785714Y-82550057D02*
X128833333Y-82645295D01*
X128833333Y-82645295D02*
X128833333Y-82788152D01*
X128833333Y-82788152D02*
X128785714Y-82883390D01*
X128785714Y-82883390D02*
X128738095Y-82931009D01*
X128738095Y-82931009D02*
X128642857Y-82978628D01*
X128642857Y-82978628D02*
X128261905Y-82978628D01*
X129214286Y-82550057D02*
X129261905Y-82502438D01*
X129261905Y-82502438D02*
X129357143Y-82454819D01*
X129357143Y-82454819D02*
X129595238Y-82454819D01*
X129595238Y-82454819D02*
X129690476Y-82502438D01*
X129690476Y-82502438D02*
X129738095Y-82550057D01*
X129738095Y-82550057D02*
X129785714Y-82645295D01*
X129785714Y-82645295D02*
X129785714Y-82740533D01*
X129785714Y-82740533D02*
X129738095Y-82883390D01*
X129738095Y-82883390D02*
X129166667Y-83454819D01*
X129166667Y-83454819D02*
X129785714Y-83454819D01*
D10*
X120039744Y-61071428D02*
X120077840Y-61095237D01*
X120077840Y-61095237D02*
X120115935Y-61166666D01*
X120115935Y-61166666D02*
X120115935Y-61214285D01*
X120115935Y-61214285D02*
X120077840Y-61285713D01*
X120077840Y-61285713D02*
X120001649Y-61333332D01*
X120001649Y-61333332D02*
X119925459Y-61357142D01*
X119925459Y-61357142D02*
X119773078Y-61380951D01*
X119773078Y-61380951D02*
X119658792Y-61380951D01*
X119658792Y-61380951D02*
X119506411Y-61357142D01*
X119506411Y-61357142D02*
X119430220Y-61333332D01*
X119430220Y-61333332D02*
X119354030Y-61285713D01*
X119354030Y-61285713D02*
X119315935Y-61214285D01*
X119315935Y-61214285D02*
X119315935Y-61166666D01*
X119315935Y-61166666D02*
X119354030Y-61095237D01*
X119354030Y-61095237D02*
X119392125Y-61071428D01*
X120115935Y-60595237D02*
X120115935Y-60880951D01*
X120115935Y-60738094D02*
X119315935Y-60738094D01*
X119315935Y-60738094D02*
X119430220Y-60785713D01*
X119430220Y-60785713D02*
X119506411Y-60833332D01*
X119506411Y-60833332D02*
X119544506Y-60880951D01*
X119315935Y-60285714D02*
X119315935Y-60238095D01*
X119315935Y-60238095D02*
X119354030Y-60190476D01*
X119354030Y-60190476D02*
X119392125Y-60166666D01*
X119392125Y-60166666D02*
X119468316Y-60142857D01*
X119468316Y-60142857D02*
X119620697Y-60119047D01*
X119620697Y-60119047D02*
X119811173Y-60119047D01*
X119811173Y-60119047D02*
X119963554Y-60142857D01*
X119963554Y-60142857D02*
X120039744Y-60166666D01*
X120039744Y-60166666D02*
X120077840Y-60190476D01*
X120077840Y-60190476D02*
X120115935Y-60238095D01*
X120115935Y-60238095D02*
X120115935Y-60285714D01*
X120115935Y-60285714D02*
X120077840Y-60333333D01*
X120077840Y-60333333D02*
X120039744Y-60357142D01*
X120039744Y-60357142D02*
X119963554Y-60380952D01*
X119963554Y-60380952D02*
X119811173Y-60404761D01*
X119811173Y-60404761D02*
X119620697Y-60404761D01*
X119620697Y-60404761D02*
X119468316Y-60380952D01*
X119468316Y-60380952D02*
X119392125Y-60357142D01*
X119392125Y-60357142D02*
X119354030Y-60333333D01*
X119354030Y-60333333D02*
X119315935Y-60285714D01*
X113678571Y-76789744D02*
X113654762Y-76827840D01*
X113654762Y-76827840D02*
X113583333Y-76865935D01*
X113583333Y-76865935D02*
X113535714Y-76865935D01*
X113535714Y-76865935D02*
X113464286Y-76827840D01*
X113464286Y-76827840D02*
X113416667Y-76751649D01*
X113416667Y-76751649D02*
X113392857Y-76675459D01*
X113392857Y-76675459D02*
X113369048Y-76523078D01*
X113369048Y-76523078D02*
X113369048Y-76408792D01*
X113369048Y-76408792D02*
X113392857Y-76256411D01*
X113392857Y-76256411D02*
X113416667Y-76180220D01*
X113416667Y-76180220D02*
X113464286Y-76104030D01*
X113464286Y-76104030D02*
X113535714Y-76065935D01*
X113535714Y-76065935D02*
X113583333Y-76065935D01*
X113583333Y-76065935D02*
X113654762Y-76104030D01*
X113654762Y-76104030D02*
X113678571Y-76142125D01*
X114154762Y-76865935D02*
X113869048Y-76865935D01*
X114011905Y-76865935D02*
X114011905Y-76065935D01*
X114011905Y-76065935D02*
X113964286Y-76180220D01*
X113964286Y-76180220D02*
X113916667Y-76256411D01*
X113916667Y-76256411D02*
X113869048Y-76294506D01*
X114345238Y-76142125D02*
X114369047Y-76104030D01*
X114369047Y-76104030D02*
X114416666Y-76065935D01*
X114416666Y-76065935D02*
X114535714Y-76065935D01*
X114535714Y-76065935D02*
X114583333Y-76104030D01*
X114583333Y-76104030D02*
X114607142Y-76142125D01*
X114607142Y-76142125D02*
X114630952Y-76218316D01*
X114630952Y-76218316D02*
X114630952Y-76294506D01*
X114630952Y-76294506D02*
X114607142Y-76408792D01*
X114607142Y-76408792D02*
X114321428Y-76865935D01*
X114321428Y-76865935D02*
X114630952Y-76865935D01*
D11*
X108416667Y-86407200D02*
X108559524Y-86454819D01*
X108559524Y-86454819D02*
X108797619Y-86454819D01*
X108797619Y-86454819D02*
X108892857Y-86407200D01*
X108892857Y-86407200D02*
X108940476Y-86359580D01*
X108940476Y-86359580D02*
X108988095Y-86264342D01*
X108988095Y-86264342D02*
X108988095Y-86169104D01*
X108988095Y-86169104D02*
X108940476Y-86073866D01*
X108940476Y-86073866D02*
X108892857Y-86026247D01*
X108892857Y-86026247D02*
X108797619Y-85978628D01*
X108797619Y-85978628D02*
X108607143Y-85931009D01*
X108607143Y-85931009D02*
X108511905Y-85883390D01*
X108511905Y-85883390D02*
X108464286Y-85835771D01*
X108464286Y-85835771D02*
X108416667Y-85740533D01*
X108416667Y-85740533D02*
X108416667Y-85645295D01*
X108416667Y-85645295D02*
X108464286Y-85550057D01*
X108464286Y-85550057D02*
X108511905Y-85502438D01*
X108511905Y-85502438D02*
X108607143Y-85454819D01*
X108607143Y-85454819D02*
X108845238Y-85454819D01*
X108845238Y-85454819D02*
X108988095Y-85502438D01*
X109321429Y-85454819D02*
X109559524Y-86454819D01*
X109559524Y-86454819D02*
X109750000Y-85740533D01*
X109750000Y-85740533D02*
X109940476Y-86454819D01*
X109940476Y-86454819D02*
X110178572Y-85454819D01*
X110464286Y-85454819D02*
X111083333Y-85454819D01*
X111083333Y-85454819D02*
X110750000Y-85835771D01*
X110750000Y-85835771D02*
X110892857Y-85835771D01*
X110892857Y-85835771D02*
X110988095Y-85883390D01*
X110988095Y-85883390D02*
X111035714Y-85931009D01*
X111035714Y-85931009D02*
X111083333Y-86026247D01*
X111083333Y-86026247D02*
X111083333Y-86264342D01*
X111083333Y-86264342D02*
X111035714Y-86359580D01*
X111035714Y-86359580D02*
X110988095Y-86407200D01*
X110988095Y-86407200D02*
X110892857Y-86454819D01*
X110892857Y-86454819D02*
X110607143Y-86454819D01*
X110607143Y-86454819D02*
X110511905Y-86407200D01*
X110511905Y-86407200D02*
X110464286Y-86359580D01*
X106204819Y-81571428D02*
X105728628Y-81904761D01*
X106204819Y-82142856D02*
X105204819Y-82142856D01*
X105204819Y-82142856D02*
X105204819Y-81761904D01*
X105204819Y-81761904D02*
X105252438Y-81666666D01*
X105252438Y-81666666D02*
X105300057Y-81619047D01*
X105300057Y-81619047D02*
X105395295Y-81571428D01*
X105395295Y-81571428D02*
X105538152Y-81571428D01*
X105538152Y-81571428D02*
X105633390Y-81619047D01*
X105633390Y-81619047D02*
X105681009Y-81666666D01*
X105681009Y-81666666D02*
X105728628Y-81761904D01*
X105728628Y-81761904D02*
X105728628Y-82142856D01*
X105681009Y-81142856D02*
X105681009Y-80809523D01*
X106204819Y-80666666D02*
X106204819Y-81142856D01*
X106204819Y-81142856D02*
X105204819Y-81142856D01*
X105204819Y-81142856D02*
X105204819Y-80666666D01*
X105681009Y-79904761D02*
X105681009Y-80238094D01*
X106204819Y-80238094D02*
X105204819Y-80238094D01*
X105204819Y-80238094D02*
X105204819Y-79761904D01*
X133333333Y-63024819D02*
X133000000Y-62548628D01*
X132761905Y-63024819D02*
X132761905Y-62024819D01*
X132761905Y-62024819D02*
X133142857Y-62024819D01*
X133142857Y-62024819D02*
X133238095Y-62072438D01*
X133238095Y-62072438D02*
X133285714Y-62120057D01*
X133285714Y-62120057D02*
X133333333Y-62215295D01*
X133333333Y-62215295D02*
X133333333Y-62358152D01*
X133333333Y-62358152D02*
X133285714Y-62453390D01*
X133285714Y-62453390D02*
X133238095Y-62501009D01*
X133238095Y-62501009D02*
X133142857Y-62548628D01*
X133142857Y-62548628D02*
X132761905Y-62548628D01*
X133666667Y-62024819D02*
X134285714Y-62024819D01*
X134285714Y-62024819D02*
X133952381Y-62405771D01*
X133952381Y-62405771D02*
X134095238Y-62405771D01*
X134095238Y-62405771D02*
X134190476Y-62453390D01*
X134190476Y-62453390D02*
X134238095Y-62501009D01*
X134238095Y-62501009D02*
X134285714Y-62596247D01*
X134285714Y-62596247D02*
X134285714Y-62834342D01*
X134285714Y-62834342D02*
X134238095Y-62929580D01*
X134238095Y-62929580D02*
X134190476Y-62977200D01*
X134190476Y-62977200D02*
X134095238Y-63024819D01*
X134095238Y-63024819D02*
X133809524Y-63024819D01*
X133809524Y-63024819D02*
X133714286Y-62977200D01*
X133714286Y-62977200D02*
X133666667Y-62929580D01*
X134333333Y-73929580D02*
X134285714Y-73977200D01*
X134285714Y-73977200D02*
X134142857Y-74024819D01*
X134142857Y-74024819D02*
X134047619Y-74024819D01*
X134047619Y-74024819D02*
X133904762Y-73977200D01*
X133904762Y-73977200D02*
X133809524Y-73881961D01*
X133809524Y-73881961D02*
X133761905Y-73786723D01*
X133761905Y-73786723D02*
X133714286Y-73596247D01*
X133714286Y-73596247D02*
X133714286Y-73453390D01*
X133714286Y-73453390D02*
X133761905Y-73262914D01*
X133761905Y-73262914D02*
X133809524Y-73167676D01*
X133809524Y-73167676D02*
X133904762Y-73072438D01*
X133904762Y-73072438D02*
X134047619Y-73024819D01*
X134047619Y-73024819D02*
X134142857Y-73024819D01*
X134142857Y-73024819D02*
X134285714Y-73072438D01*
X134285714Y-73072438D02*
X134333333Y-73120057D01*
X135238095Y-73024819D02*
X134761905Y-73024819D01*
X134761905Y-73024819D02*
X134714286Y-73501009D01*
X134714286Y-73501009D02*
X134761905Y-73453390D01*
X134761905Y-73453390D02*
X134857143Y-73405771D01*
X134857143Y-73405771D02*
X135095238Y-73405771D01*
X135095238Y-73405771D02*
X135190476Y-73453390D01*
X135190476Y-73453390D02*
X135238095Y-73501009D01*
X135238095Y-73501009D02*
X135285714Y-73596247D01*
X135285714Y-73596247D02*
X135285714Y-73834342D01*
X135285714Y-73834342D02*
X135238095Y-73929580D01*
X135238095Y-73929580D02*
X135190476Y-73977200D01*
X135190476Y-73977200D02*
X135095238Y-74024819D01*
X135095238Y-74024819D02*
X134857143Y-74024819D01*
X134857143Y-74024819D02*
X134761905Y-73977200D01*
X134761905Y-73977200D02*
X134714286Y-73929580D01*
X134333333Y-76929580D02*
X134285714Y-76977200D01*
X134285714Y-76977200D02*
X134142857Y-77024819D01*
X134142857Y-77024819D02*
X134047619Y-77024819D01*
X134047619Y-77024819D02*
X133904762Y-76977200D01*
X133904762Y-76977200D02*
X133809524Y-76881961D01*
X133809524Y-76881961D02*
X133761905Y-76786723D01*
X133761905Y-76786723D02*
X133714286Y-76596247D01*
X133714286Y-76596247D02*
X133714286Y-76453390D01*
X133714286Y-76453390D02*
X133761905Y-76262914D01*
X133761905Y-76262914D02*
X133809524Y-76167676D01*
X133809524Y-76167676D02*
X133904762Y-76072438D01*
X133904762Y-76072438D02*
X134047619Y-76024819D01*
X134047619Y-76024819D02*
X134142857Y-76024819D01*
X134142857Y-76024819D02*
X134285714Y-76072438D01*
X134285714Y-76072438D02*
X134333333Y-76120057D01*
X135285714Y-77024819D02*
X134714286Y-77024819D01*
X135000000Y-77024819D02*
X135000000Y-76024819D01*
X135000000Y-76024819D02*
X134904762Y-76167676D01*
X134904762Y-76167676D02*
X134809524Y-76262914D01*
X134809524Y-76262914D02*
X134714286Y-76310533D01*
X134333333Y-79929580D02*
X134285714Y-79977200D01*
X134285714Y-79977200D02*
X134142857Y-80024819D01*
X134142857Y-80024819D02*
X134047619Y-80024819D01*
X134047619Y-80024819D02*
X133904762Y-79977200D01*
X133904762Y-79977200D02*
X133809524Y-79881961D01*
X133809524Y-79881961D02*
X133761905Y-79786723D01*
X133761905Y-79786723D02*
X133714286Y-79596247D01*
X133714286Y-79596247D02*
X133714286Y-79453390D01*
X133714286Y-79453390D02*
X133761905Y-79262914D01*
X133761905Y-79262914D02*
X133809524Y-79167676D01*
X133809524Y-79167676D02*
X133904762Y-79072438D01*
X133904762Y-79072438D02*
X134047619Y-79024819D01*
X134047619Y-79024819D02*
X134142857Y-79024819D01*
X134142857Y-79024819D02*
X134285714Y-79072438D01*
X134285714Y-79072438D02*
X134333333Y-79120057D01*
X135190476Y-79358152D02*
X135190476Y-80024819D01*
X134952381Y-78977200D02*
X134714286Y-79691485D01*
X134714286Y-79691485D02*
X135333333Y-79691485D01*
D12*
X116178571Y-81217404D02*
X116154762Y-81255500D01*
X116154762Y-81255500D02*
X116083333Y-81293595D01*
X116083333Y-81293595D02*
X116035714Y-81293595D01*
X116035714Y-81293595D02*
X115964286Y-81255500D01*
X115964286Y-81255500D02*
X115916667Y-81179309D01*
X115916667Y-81179309D02*
X115892857Y-81103119D01*
X115892857Y-81103119D02*
X115869048Y-80950738D01*
X115869048Y-80950738D02*
X115869048Y-80836452D01*
X115869048Y-80836452D02*
X115892857Y-80684071D01*
X115892857Y-80684071D02*
X115916667Y-80607880D01*
X115916667Y-80607880D02*
X115964286Y-80531690D01*
X115964286Y-80531690D02*
X116035714Y-80493595D01*
X116035714Y-80493595D02*
X116083333Y-80493595D01*
X116083333Y-80493595D02*
X116154762Y-80531690D01*
X116154762Y-80531690D02*
X116178571Y-80569785D01*
X116654762Y-81293595D02*
X116369048Y-81293595D01*
X116511905Y-81293595D02*
X116511905Y-80493595D01*
X116511905Y-80493595D02*
X116464286Y-80607880D01*
X116464286Y-80607880D02*
X116416667Y-80684071D01*
X116416667Y-80684071D02*
X116369048Y-80722166D01*
X117083333Y-80760261D02*
X117083333Y-81293595D01*
X116964285Y-80455500D02*
X116845238Y-81026928D01*
X116845238Y-81026928D02*
X117154761Y-81026928D01*
D10*
X114039744Y-74821428D02*
X114077840Y-74845237D01*
X114077840Y-74845237D02*
X114115935Y-74916666D01*
X114115935Y-74916666D02*
X114115935Y-74964285D01*
X114115935Y-74964285D02*
X114077840Y-75035713D01*
X114077840Y-75035713D02*
X114001649Y-75083332D01*
X114001649Y-75083332D02*
X113925459Y-75107142D01*
X113925459Y-75107142D02*
X113773078Y-75130951D01*
X113773078Y-75130951D02*
X113658792Y-75130951D01*
X113658792Y-75130951D02*
X113506411Y-75107142D01*
X113506411Y-75107142D02*
X113430220Y-75083332D01*
X113430220Y-75083332D02*
X113354030Y-75035713D01*
X113354030Y-75035713D02*
X113315935Y-74964285D01*
X113315935Y-74964285D02*
X113315935Y-74916666D01*
X113315935Y-74916666D02*
X113354030Y-74845237D01*
X113354030Y-74845237D02*
X113392125Y-74821428D01*
X114115935Y-74345237D02*
X114115935Y-74630951D01*
X114115935Y-74488094D02*
X113315935Y-74488094D01*
X113315935Y-74488094D02*
X113430220Y-74535713D01*
X113430220Y-74535713D02*
X113506411Y-74583332D01*
X113506411Y-74583332D02*
X113544506Y-74630951D01*
X113315935Y-74178571D02*
X113315935Y-73869047D01*
X113315935Y-73869047D02*
X113620697Y-74035714D01*
X113620697Y-74035714D02*
X113620697Y-73964285D01*
X113620697Y-73964285D02*
X113658792Y-73916666D01*
X113658792Y-73916666D02*
X113696887Y-73892857D01*
X113696887Y-73892857D02*
X113773078Y-73869047D01*
X113773078Y-73869047D02*
X113963554Y-73869047D01*
X113963554Y-73869047D02*
X114039744Y-73892857D01*
X114039744Y-73892857D02*
X114077840Y-73916666D01*
X114077840Y-73916666D02*
X114115935Y-73964285D01*
X114115935Y-73964285D02*
X114115935Y-74107142D01*
X114115935Y-74107142D02*
X114077840Y-74154761D01*
X114077840Y-74154761D02*
X114039744Y-74178571D01*
D11*
X132666667Y-58407200D02*
X132809524Y-58454819D01*
X132809524Y-58454819D02*
X133047619Y-58454819D01*
X133047619Y-58454819D02*
X133142857Y-58407200D01*
X133142857Y-58407200D02*
X133190476Y-58359580D01*
X133190476Y-58359580D02*
X133238095Y-58264342D01*
X133238095Y-58264342D02*
X133238095Y-58169104D01*
X133238095Y-58169104D02*
X133190476Y-58073866D01*
X133190476Y-58073866D02*
X133142857Y-58026247D01*
X133142857Y-58026247D02*
X133047619Y-57978628D01*
X133047619Y-57978628D02*
X132857143Y-57931009D01*
X132857143Y-57931009D02*
X132761905Y-57883390D01*
X132761905Y-57883390D02*
X132714286Y-57835771D01*
X132714286Y-57835771D02*
X132666667Y-57740533D01*
X132666667Y-57740533D02*
X132666667Y-57645295D01*
X132666667Y-57645295D02*
X132714286Y-57550057D01*
X132714286Y-57550057D02*
X132761905Y-57502438D01*
X132761905Y-57502438D02*
X132857143Y-57454819D01*
X132857143Y-57454819D02*
X133095238Y-57454819D01*
X133095238Y-57454819D02*
X133238095Y-57502438D01*
X133571429Y-57454819D02*
X133809524Y-58454819D01*
X133809524Y-58454819D02*
X134000000Y-57740533D01*
X134000000Y-57740533D02*
X134190476Y-58454819D01*
X134190476Y-58454819D02*
X134428572Y-57454819D01*
X135333333Y-58454819D02*
X134761905Y-58454819D01*
X135047619Y-58454819D02*
X135047619Y-57454819D01*
X135047619Y-57454819D02*
X134952381Y-57597676D01*
X134952381Y-57597676D02*
X134857143Y-57692914D01*
X134857143Y-57692914D02*
X134761905Y-57740533D01*
X128428571Y-56390819D02*
X128095238Y-55914628D01*
X127857143Y-56390819D02*
X127857143Y-55390819D01*
X127857143Y-55390819D02*
X128238095Y-55390819D01*
X128238095Y-55390819D02*
X128333333Y-55438438D01*
X128333333Y-55438438D02*
X128380952Y-55486057D01*
X128380952Y-55486057D02*
X128428571Y-55581295D01*
X128428571Y-55581295D02*
X128428571Y-55724152D01*
X128428571Y-55724152D02*
X128380952Y-55819390D01*
X128380952Y-55819390D02*
X128333333Y-55867009D01*
X128333333Y-55867009D02*
X128238095Y-55914628D01*
X128238095Y-55914628D02*
X127857143Y-55914628D01*
X128857143Y-55867009D02*
X129190476Y-55867009D01*
X129333333Y-56390819D02*
X128857143Y-56390819D01*
X128857143Y-56390819D02*
X128857143Y-55390819D01*
X128857143Y-55390819D02*
X129333333Y-55390819D01*
X130095238Y-55867009D02*
X129761905Y-55867009D01*
X129761905Y-56390819D02*
X129761905Y-55390819D01*
X129761905Y-55390819D02*
X130238095Y-55390819D01*
D10*
X120178571Y-82039744D02*
X120154762Y-82077840D01*
X120154762Y-82077840D02*
X120083333Y-82115935D01*
X120083333Y-82115935D02*
X120035714Y-82115935D01*
X120035714Y-82115935D02*
X119964286Y-82077840D01*
X119964286Y-82077840D02*
X119916667Y-82001649D01*
X119916667Y-82001649D02*
X119892857Y-81925459D01*
X119892857Y-81925459D02*
X119869048Y-81773078D01*
X119869048Y-81773078D02*
X119869048Y-81658792D01*
X119869048Y-81658792D02*
X119892857Y-81506411D01*
X119892857Y-81506411D02*
X119916667Y-81430220D01*
X119916667Y-81430220D02*
X119964286Y-81354030D01*
X119964286Y-81354030D02*
X120035714Y-81315935D01*
X120035714Y-81315935D02*
X120083333Y-81315935D01*
X120083333Y-81315935D02*
X120154762Y-81354030D01*
X120154762Y-81354030D02*
X120178571Y-81392125D01*
X120654762Y-82115935D02*
X120369048Y-82115935D01*
X120511905Y-82115935D02*
X120511905Y-81315935D01*
X120511905Y-81315935D02*
X120464286Y-81430220D01*
X120464286Y-81430220D02*
X120416667Y-81506411D01*
X120416667Y-81506411D02*
X120369048Y-81544506D01*
X121083333Y-81315935D02*
X120988095Y-81315935D01*
X120988095Y-81315935D02*
X120940476Y-81354030D01*
X120940476Y-81354030D02*
X120916666Y-81392125D01*
X120916666Y-81392125D02*
X120869047Y-81506411D01*
X120869047Y-81506411D02*
X120845238Y-81658792D01*
X120845238Y-81658792D02*
X120845238Y-81963554D01*
X120845238Y-81963554D02*
X120869047Y-82039744D01*
X120869047Y-82039744D02*
X120892857Y-82077840D01*
X120892857Y-82077840D02*
X120940476Y-82115935D01*
X120940476Y-82115935D02*
X121035714Y-82115935D01*
X121035714Y-82115935D02*
X121083333Y-82077840D01*
X121083333Y-82077840D02*
X121107142Y-82039744D01*
X121107142Y-82039744D02*
X121130952Y-81963554D01*
X121130952Y-81963554D02*
X121130952Y-81773078D01*
X121130952Y-81773078D02*
X121107142Y-81696887D01*
X121107142Y-81696887D02*
X121083333Y-81658792D01*
X121083333Y-81658792D02*
X121035714Y-81620697D01*
X121035714Y-81620697D02*
X120940476Y-81620697D01*
X120940476Y-81620697D02*
X120892857Y-81658792D01*
X120892857Y-81658792D02*
X120869047Y-81696887D01*
X120869047Y-81696887D02*
X120845238Y-81773078D01*
D11*
X107478628Y-71976190D02*
X107954819Y-71976190D01*
X106954819Y-72309523D02*
X107478628Y-71976190D01*
X107478628Y-71976190D02*
X106954819Y-71642857D01*
X107954819Y-70785714D02*
X107954819Y-71357142D01*
X107954819Y-71071428D02*
X106954819Y-71071428D01*
X106954819Y-71071428D02*
X107097676Y-71166666D01*
X107097676Y-71166666D02*
X107192914Y-71261904D01*
X107192914Y-71261904D02*
X107240533Y-71357142D01*
X124238095Y-63054819D02*
X124238095Y-63864342D01*
X124238095Y-63864342D02*
X124285714Y-63959580D01*
X124285714Y-63959580D02*
X124333333Y-64007200D01*
X124333333Y-64007200D02*
X124428571Y-64054819D01*
X124428571Y-64054819D02*
X124619047Y-64054819D01*
X124619047Y-64054819D02*
X124714285Y-64007200D01*
X124714285Y-64007200D02*
X124761904Y-63959580D01*
X124761904Y-63959580D02*
X124809523Y-63864342D01*
X124809523Y-63864342D02*
X124809523Y-63054819D01*
X125809523Y-64054819D02*
X125238095Y-64054819D01*
X125523809Y-64054819D02*
X125523809Y-63054819D01*
X125523809Y-63054819D02*
X125428571Y-63197676D01*
X125428571Y-63197676D02*
X125333333Y-63292914D01*
X125333333Y-63292914D02*
X125238095Y-63340533D01*
D12*
X119666666Y-63037404D02*
X119642857Y-63075500D01*
X119642857Y-63075500D02*
X119571428Y-63113595D01*
X119571428Y-63113595D02*
X119523809Y-63113595D01*
X119523809Y-63113595D02*
X119452381Y-63075500D01*
X119452381Y-63075500D02*
X119404762Y-62999309D01*
X119404762Y-62999309D02*
X119380952Y-62923119D01*
X119380952Y-62923119D02*
X119357143Y-62770738D01*
X119357143Y-62770738D02*
X119357143Y-62656452D01*
X119357143Y-62656452D02*
X119380952Y-62504071D01*
X119380952Y-62504071D02*
X119404762Y-62427880D01*
X119404762Y-62427880D02*
X119452381Y-62351690D01*
X119452381Y-62351690D02*
X119523809Y-62313595D01*
X119523809Y-62313595D02*
X119571428Y-62313595D01*
X119571428Y-62313595D02*
X119642857Y-62351690D01*
X119642857Y-62351690D02*
X119666666Y-62389785D01*
X120095238Y-62313595D02*
X120000000Y-62313595D01*
X120000000Y-62313595D02*
X119952381Y-62351690D01*
X119952381Y-62351690D02*
X119928571Y-62389785D01*
X119928571Y-62389785D02*
X119880952Y-62504071D01*
X119880952Y-62504071D02*
X119857143Y-62656452D01*
X119857143Y-62656452D02*
X119857143Y-62961214D01*
X119857143Y-62961214D02*
X119880952Y-63037404D01*
X119880952Y-63037404D02*
X119904762Y-63075500D01*
X119904762Y-63075500D02*
X119952381Y-63113595D01*
X119952381Y-63113595D02*
X120047619Y-63113595D01*
X120047619Y-63113595D02*
X120095238Y-63075500D01*
X120095238Y-63075500D02*
X120119047Y-63037404D01*
X120119047Y-63037404D02*
X120142857Y-62961214D01*
X120142857Y-62961214D02*
X120142857Y-62770738D01*
X120142857Y-62770738D02*
X120119047Y-62694547D01*
X120119047Y-62694547D02*
X120095238Y-62656452D01*
X120095238Y-62656452D02*
X120047619Y-62618357D01*
X120047619Y-62618357D02*
X119952381Y-62618357D01*
X119952381Y-62618357D02*
X119904762Y-62656452D01*
X119904762Y-62656452D02*
X119880952Y-62694547D01*
X119880952Y-62694547D02*
X119857143Y-62770738D01*
D10*
X129833334Y-80696887D02*
X129666667Y-80696887D01*
X129666667Y-81115935D02*
X129666667Y-80315935D01*
X129666667Y-80315935D02*
X129904762Y-80315935D01*
X130261905Y-80696887D02*
X130333333Y-80734982D01*
X130333333Y-80734982D02*
X130357143Y-80773078D01*
X130357143Y-80773078D02*
X130380952Y-80849268D01*
X130380952Y-80849268D02*
X130380952Y-80963554D01*
X130380952Y-80963554D02*
X130357143Y-81039744D01*
X130357143Y-81039744D02*
X130333333Y-81077840D01*
X130333333Y-81077840D02*
X130285714Y-81115935D01*
X130285714Y-81115935D02*
X130095238Y-81115935D01*
X130095238Y-81115935D02*
X130095238Y-80315935D01*
X130095238Y-80315935D02*
X130261905Y-80315935D01*
X130261905Y-80315935D02*
X130309524Y-80354030D01*
X130309524Y-80354030D02*
X130333333Y-80392125D01*
X130333333Y-80392125D02*
X130357143Y-80468316D01*
X130357143Y-80468316D02*
X130357143Y-80544506D01*
X130357143Y-80544506D02*
X130333333Y-80620697D01*
X130333333Y-80620697D02*
X130309524Y-80658792D01*
X130309524Y-80658792D02*
X130261905Y-80696887D01*
X130261905Y-80696887D02*
X130095238Y-80696887D01*
X130857143Y-81115935D02*
X130571429Y-81115935D01*
X130714286Y-81115935D02*
X130714286Y-80315935D01*
X130714286Y-80315935D02*
X130666667Y-80430220D01*
X130666667Y-80430220D02*
X130619048Y-80506411D01*
X130619048Y-80506411D02*
X130571429Y-80544506D01*
X116678571Y-75789744D02*
X116654762Y-75827840D01*
X116654762Y-75827840D02*
X116583333Y-75865935D01*
X116583333Y-75865935D02*
X116535714Y-75865935D01*
X116535714Y-75865935D02*
X116464286Y-75827840D01*
X116464286Y-75827840D02*
X116416667Y-75751649D01*
X116416667Y-75751649D02*
X116392857Y-75675459D01*
X116392857Y-75675459D02*
X116369048Y-75523078D01*
X116369048Y-75523078D02*
X116369048Y-75408792D01*
X116369048Y-75408792D02*
X116392857Y-75256411D01*
X116392857Y-75256411D02*
X116416667Y-75180220D01*
X116416667Y-75180220D02*
X116464286Y-75104030D01*
X116464286Y-75104030D02*
X116535714Y-75065935D01*
X116535714Y-75065935D02*
X116583333Y-75065935D01*
X116583333Y-75065935D02*
X116654762Y-75104030D01*
X116654762Y-75104030D02*
X116678571Y-75142125D01*
X117154762Y-75865935D02*
X116869048Y-75865935D01*
X117011905Y-75865935D02*
X117011905Y-75065935D01*
X117011905Y-75065935D02*
X116964286Y-75180220D01*
X116964286Y-75180220D02*
X116916667Y-75256411D01*
X116916667Y-75256411D02*
X116869048Y-75294506D01*
X117630952Y-75865935D02*
X117345238Y-75865935D01*
X117488095Y-75865935D02*
X117488095Y-75065935D01*
X117488095Y-75065935D02*
X117440476Y-75180220D01*
X117440476Y-75180220D02*
X117392857Y-75256411D01*
X117392857Y-75256411D02*
X117345238Y-75294506D01*
D11*
X114034819Y-84333333D02*
X114749104Y-84333333D01*
X114749104Y-84333333D02*
X114891961Y-84380952D01*
X114891961Y-84380952D02*
X114987200Y-84476190D01*
X114987200Y-84476190D02*
X115034819Y-84619047D01*
X115034819Y-84619047D02*
X115034819Y-84714285D01*
X114130057Y-83904761D02*
X114082438Y-83857142D01*
X114082438Y-83857142D02*
X114034819Y-83761904D01*
X114034819Y-83761904D02*
X114034819Y-83523809D01*
X114034819Y-83523809D02*
X114082438Y-83428571D01*
X114082438Y-83428571D02*
X114130057Y-83380952D01*
X114130057Y-83380952D02*
X114225295Y-83333333D01*
X114225295Y-83333333D02*
X114320533Y-83333333D01*
X114320533Y-83333333D02*
X114463390Y-83380952D01*
X114463390Y-83380952D02*
X115034819Y-83952380D01*
X115034819Y-83952380D02*
X115034819Y-83333333D01*
X137039580Y-66666666D02*
X137087200Y-66714285D01*
X137087200Y-66714285D02*
X137134819Y-66857142D01*
X137134819Y-66857142D02*
X137134819Y-66952380D01*
X137134819Y-66952380D02*
X137087200Y-67095237D01*
X137087200Y-67095237D02*
X136991961Y-67190475D01*
X136991961Y-67190475D02*
X136896723Y-67238094D01*
X136896723Y-67238094D02*
X136706247Y-67285713D01*
X136706247Y-67285713D02*
X136563390Y-67285713D01*
X136563390Y-67285713D02*
X136372914Y-67238094D01*
X136372914Y-67238094D02*
X136277676Y-67190475D01*
X136277676Y-67190475D02*
X136182438Y-67095237D01*
X136182438Y-67095237D02*
X136134819Y-66952380D01*
X136134819Y-66952380D02*
X136134819Y-66857142D01*
X136134819Y-66857142D02*
X136182438Y-66714285D01*
X136182438Y-66714285D02*
X136230057Y-66666666D01*
X136134819Y-66333332D02*
X136134819Y-65666666D01*
X136134819Y-65666666D02*
X137134819Y-66095237D01*
D10*
X113539744Y-70571428D02*
X113577840Y-70595237D01*
X113577840Y-70595237D02*
X113615935Y-70666666D01*
X113615935Y-70666666D02*
X113615935Y-70714285D01*
X113615935Y-70714285D02*
X113577840Y-70785713D01*
X113577840Y-70785713D02*
X113501649Y-70833332D01*
X113501649Y-70833332D02*
X113425459Y-70857142D01*
X113425459Y-70857142D02*
X113273078Y-70880951D01*
X113273078Y-70880951D02*
X113158792Y-70880951D01*
X113158792Y-70880951D02*
X113006411Y-70857142D01*
X113006411Y-70857142D02*
X112930220Y-70833332D01*
X112930220Y-70833332D02*
X112854030Y-70785713D01*
X112854030Y-70785713D02*
X112815935Y-70714285D01*
X112815935Y-70714285D02*
X112815935Y-70666666D01*
X112815935Y-70666666D02*
X112854030Y-70595237D01*
X112854030Y-70595237D02*
X112892125Y-70571428D01*
X113615935Y-70095237D02*
X113615935Y-70380951D01*
X113615935Y-70238094D02*
X112815935Y-70238094D01*
X112815935Y-70238094D02*
X112930220Y-70285713D01*
X112930220Y-70285713D02*
X113006411Y-70333332D01*
X113006411Y-70333332D02*
X113044506Y-70380951D01*
X112815935Y-69642857D02*
X112815935Y-69880952D01*
X112815935Y-69880952D02*
X113196887Y-69904761D01*
X113196887Y-69904761D02*
X113158792Y-69880952D01*
X113158792Y-69880952D02*
X113120697Y-69833333D01*
X113120697Y-69833333D02*
X113120697Y-69714285D01*
X113120697Y-69714285D02*
X113158792Y-69666666D01*
X113158792Y-69666666D02*
X113196887Y-69642857D01*
X113196887Y-69642857D02*
X113273078Y-69619047D01*
X113273078Y-69619047D02*
X113463554Y-69619047D01*
X113463554Y-69619047D02*
X113539744Y-69642857D01*
X113539744Y-69642857D02*
X113577840Y-69666666D01*
X113577840Y-69666666D02*
X113615935Y-69714285D01*
X113615935Y-69714285D02*
X113615935Y-69833333D01*
X113615935Y-69833333D02*
X113577840Y-69880952D01*
X113577840Y-69880952D02*
X113539744Y-69904761D01*
D11*
X112166667Y-53657200D02*
X112309524Y-53704819D01*
X112309524Y-53704819D02*
X112547619Y-53704819D01*
X112547619Y-53704819D02*
X112642857Y-53657200D01*
X112642857Y-53657200D02*
X112690476Y-53609580D01*
X112690476Y-53609580D02*
X112738095Y-53514342D01*
X112738095Y-53514342D02*
X112738095Y-53419104D01*
X112738095Y-53419104D02*
X112690476Y-53323866D01*
X112690476Y-53323866D02*
X112642857Y-53276247D01*
X112642857Y-53276247D02*
X112547619Y-53228628D01*
X112547619Y-53228628D02*
X112357143Y-53181009D01*
X112357143Y-53181009D02*
X112261905Y-53133390D01*
X112261905Y-53133390D02*
X112214286Y-53085771D01*
X112214286Y-53085771D02*
X112166667Y-52990533D01*
X112166667Y-52990533D02*
X112166667Y-52895295D01*
X112166667Y-52895295D02*
X112214286Y-52800057D01*
X112214286Y-52800057D02*
X112261905Y-52752438D01*
X112261905Y-52752438D02*
X112357143Y-52704819D01*
X112357143Y-52704819D02*
X112595238Y-52704819D01*
X112595238Y-52704819D02*
X112738095Y-52752438D01*
X113071429Y-52704819D02*
X113309524Y-53704819D01*
X113309524Y-53704819D02*
X113500000Y-52990533D01*
X113500000Y-52990533D02*
X113690476Y-53704819D01*
X113690476Y-53704819D02*
X113928572Y-52704819D01*
X114261905Y-52800057D02*
X114309524Y-52752438D01*
X114309524Y-52752438D02*
X114404762Y-52704819D01*
X114404762Y-52704819D02*
X114642857Y-52704819D01*
X114642857Y-52704819D02*
X114738095Y-52752438D01*
X114738095Y-52752438D02*
X114785714Y-52800057D01*
X114785714Y-52800057D02*
X114833333Y-52895295D01*
X114833333Y-52895295D02*
X114833333Y-52990533D01*
X114833333Y-52990533D02*
X114785714Y-53133390D01*
X114785714Y-53133390D02*
X114214286Y-53704819D01*
X114214286Y-53704819D02*
X114833333Y-53704819D01*
D12*
X115166666Y-65037404D02*
X115142857Y-65075500D01*
X115142857Y-65075500D02*
X115071428Y-65113595D01*
X115071428Y-65113595D02*
X115023809Y-65113595D01*
X115023809Y-65113595D02*
X114952381Y-65075500D01*
X114952381Y-65075500D02*
X114904762Y-64999309D01*
X114904762Y-64999309D02*
X114880952Y-64923119D01*
X114880952Y-64923119D02*
X114857143Y-64770738D01*
X114857143Y-64770738D02*
X114857143Y-64656452D01*
X114857143Y-64656452D02*
X114880952Y-64504071D01*
X114880952Y-64504071D02*
X114904762Y-64427880D01*
X114904762Y-64427880D02*
X114952381Y-64351690D01*
X114952381Y-64351690D02*
X115023809Y-64313595D01*
X115023809Y-64313595D02*
X115071428Y-64313595D01*
X115071428Y-64313595D02*
X115142857Y-64351690D01*
X115142857Y-64351690D02*
X115166666Y-64389785D01*
X115452381Y-64656452D02*
X115404762Y-64618357D01*
X115404762Y-64618357D02*
X115380952Y-64580261D01*
X115380952Y-64580261D02*
X115357143Y-64504071D01*
X115357143Y-64504071D02*
X115357143Y-64465976D01*
X115357143Y-64465976D02*
X115380952Y-64389785D01*
X115380952Y-64389785D02*
X115404762Y-64351690D01*
X115404762Y-64351690D02*
X115452381Y-64313595D01*
X115452381Y-64313595D02*
X115547619Y-64313595D01*
X115547619Y-64313595D02*
X115595238Y-64351690D01*
X115595238Y-64351690D02*
X115619047Y-64389785D01*
X115619047Y-64389785D02*
X115642857Y-64465976D01*
X115642857Y-64465976D02*
X115642857Y-64504071D01*
X115642857Y-64504071D02*
X115619047Y-64580261D01*
X115619047Y-64580261D02*
X115595238Y-64618357D01*
X115595238Y-64618357D02*
X115547619Y-64656452D01*
X115547619Y-64656452D02*
X115452381Y-64656452D01*
X115452381Y-64656452D02*
X115404762Y-64694547D01*
X115404762Y-64694547D02*
X115380952Y-64732642D01*
X115380952Y-64732642D02*
X115357143Y-64808833D01*
X115357143Y-64808833D02*
X115357143Y-64961214D01*
X115357143Y-64961214D02*
X115380952Y-65037404D01*
X115380952Y-65037404D02*
X115404762Y-65075500D01*
X115404762Y-65075500D02*
X115452381Y-65113595D01*
X115452381Y-65113595D02*
X115547619Y-65113595D01*
X115547619Y-65113595D02*
X115595238Y-65075500D01*
X115595238Y-65075500D02*
X115619047Y-65037404D01*
X115619047Y-65037404D02*
X115642857Y-64961214D01*
X115642857Y-64961214D02*
X115642857Y-64808833D01*
X115642857Y-64808833D02*
X115619047Y-64732642D01*
X115619047Y-64732642D02*
X115595238Y-64694547D01*
X115595238Y-64694547D02*
X115547619Y-64656452D01*
D11*
X128261905Y-85454819D02*
X128261905Y-84454819D01*
X128261905Y-84454819D02*
X128500000Y-84454819D01*
X128500000Y-84454819D02*
X128642857Y-84502438D01*
X128642857Y-84502438D02*
X128738095Y-84597676D01*
X128738095Y-84597676D02*
X128785714Y-84692914D01*
X128785714Y-84692914D02*
X128833333Y-84883390D01*
X128833333Y-84883390D02*
X128833333Y-85026247D01*
X128833333Y-85026247D02*
X128785714Y-85216723D01*
X128785714Y-85216723D02*
X128738095Y-85311961D01*
X128738095Y-85311961D02*
X128642857Y-85407200D01*
X128642857Y-85407200D02*
X128500000Y-85454819D01*
X128500000Y-85454819D02*
X128261905Y-85454819D01*
X129214286Y-84550057D02*
X129261905Y-84502438D01*
X129261905Y-84502438D02*
X129357143Y-84454819D01*
X129357143Y-84454819D02*
X129595238Y-84454819D01*
X129595238Y-84454819D02*
X129690476Y-84502438D01*
X129690476Y-84502438D02*
X129738095Y-84550057D01*
X129738095Y-84550057D02*
X129785714Y-84645295D01*
X129785714Y-84645295D02*
X129785714Y-84740533D01*
X129785714Y-84740533D02*
X129738095Y-84883390D01*
X129738095Y-84883390D02*
X129166667Y-85454819D01*
X129166667Y-85454819D02*
X129785714Y-85454819D01*
D13*
%TO.C,C9*%
X128140580Y-78490000D02*
X127859420Y-78490000D01*
X128140580Y-79510000D02*
X127859420Y-79510000D01*
%TO.C,C2*%
X130859420Y-76990000D02*
X131140580Y-76990000D01*
X130859420Y-78010000D02*
X131140580Y-78010000D01*
%TO.C,J1*%
X137687500Y-70700000D02*
X137687500Y-70250000D01*
X137687500Y-70700000D02*
X138137500Y-70700000D01*
X138237500Y-65100000D02*
X138237500Y-65550000D01*
X138237500Y-72900000D02*
X138237500Y-72450000D01*
X140087500Y-65100000D02*
X138237500Y-65100000D01*
X140087500Y-72900000D02*
X138237500Y-72900000D01*
X142637500Y-65100000D02*
X142387500Y-65100000D01*
X142637500Y-72900000D02*
X142387500Y-72900000D01*
%TO.C,R1*%
X123512742Y-56727500D02*
X123987258Y-56727500D01*
X123512742Y-57772500D02*
X123987258Y-57772500D01*
%TO.C,J_SWD1*%
X108870000Y-64810000D02*
X108870000Y-54540000D01*
X111630000Y-54540000D02*
X108870000Y-54540000D01*
X111630000Y-64810000D02*
X108870000Y-64810000D01*
X111630000Y-64810000D02*
X111630000Y-54540000D01*
X111630000Y-66080000D02*
X111630000Y-67460000D01*
X111630000Y-67460000D02*
X110250000Y-67460000D01*
%TO.C,U2*%
X139150000Y-75090000D02*
X142910000Y-75090000D01*
X139150000Y-81910000D02*
X142910000Y-81910000D01*
X142910000Y-75090000D02*
X142910000Y-76350000D01*
X142910000Y-81910000D02*
X142910000Y-80650000D01*
X137870000Y-75190000D02*
X137630000Y-74860000D01*
X138110000Y-74860000D01*
X137870000Y-75190000D01*
G36*
X137870000Y-75190000D02*
G01*
X137630000Y-74860000D01*
X138110000Y-74860000D01*
X137870000Y-75190000D01*
G37*
%TO.C,R2*%
X126262742Y-82477500D02*
X126737258Y-82477500D01*
X126262742Y-83522500D02*
X126737258Y-83522500D01*
%TO.C,C10*%
X121834420Y-60240000D02*
X122115580Y-60240000D01*
X121834420Y-61260000D02*
X122115580Y-61260000D01*
%TO.C,C12*%
X116640580Y-76990000D02*
X116359420Y-76990000D01*
X116640580Y-78010000D02*
X116359420Y-78010000D01*
%TO.C,SW3*%
X106600000Y-79000000D02*
X107750000Y-77850000D01*
X106600000Y-83000000D02*
X106600000Y-79000000D01*
X107750000Y-77850000D02*
X108450000Y-77850000D01*
X107769000Y-84150000D02*
X106600000Y-83000000D01*
X108450000Y-84150000D02*
X107769000Y-84150000D01*
X111050000Y-84150000D02*
X111750000Y-84150000D01*
X111750000Y-77850000D02*
X111050000Y-77850000D01*
X111750000Y-84150000D02*
X112900000Y-83000000D01*
X112900000Y-79000000D02*
X111750000Y-77850000D01*
X112900000Y-83000000D02*
X112900000Y-79000000D01*
%TO.C,R3*%
X133262742Y-63477500D02*
X133737258Y-63477500D01*
X133262742Y-64522500D02*
X133737258Y-64522500D01*
%TO.C,C5*%
X134359420Y-74490000D02*
X134640580Y-74490000D01*
X134359420Y-75510000D02*
X134640580Y-75510000D01*
%TO.C,C1*%
X134359420Y-77490000D02*
X134640580Y-77490000D01*
X134359420Y-78510000D02*
X134640580Y-78510000D01*
%TO.C,C4*%
X134359420Y-80490000D02*
X134640580Y-80490000D01*
X134359420Y-81510000D02*
X134640580Y-81510000D01*
%TO.C,C14*%
X116640580Y-78990000D02*
X116359420Y-78990000D01*
X116640580Y-80010000D02*
X116359420Y-80010000D01*
%TO.C,C13*%
X113990000Y-72640580D02*
X113990000Y-72359420D01*
X115010000Y-72640580D02*
X115010000Y-72359420D01*
%TO.C,SW1*%
X125850000Y-58019000D02*
X127000000Y-56850000D01*
X125850000Y-58700000D02*
X125850000Y-58019000D01*
X125850000Y-61300000D02*
X125850000Y-62000000D01*
X125850000Y-62000000D02*
X127000000Y-63150000D01*
X127000000Y-56850000D02*
X131000000Y-56850000D01*
X127000000Y-63150000D02*
X131000000Y-63150000D01*
X131000000Y-56850000D02*
X132150000Y-58000000D01*
X131000000Y-63150000D02*
X132150000Y-62000000D01*
X132150000Y-58000000D02*
X132150000Y-58700000D01*
X132150000Y-62000000D02*
X132150000Y-61300000D01*
%TO.C,C16*%
X121859420Y-78990000D02*
X122140580Y-78990000D01*
X121859420Y-80010000D02*
X122140580Y-80010000D01*
%TO.C,Y1*%
X108640000Y-68740000D02*
X108640000Y-74610000D01*
X108640000Y-74610000D02*
X112360000Y-74610000D01*
X112360000Y-74610000D02*
X112360000Y-68740000D01*
%TO.C,U1*%
X119890000Y-65890000D02*
X120840000Y-65890000D01*
X119890000Y-66840000D02*
X119890000Y-65890000D01*
X119890000Y-76110000D02*
X119890000Y-75160000D01*
X120840000Y-76110000D02*
X119890000Y-76110000D01*
X129160000Y-65890000D02*
X130110000Y-65890000D01*
X130110000Y-65890000D02*
X130110000Y-66840000D01*
X130110000Y-75160000D02*
X130110000Y-76110000D01*
X130110000Y-76110000D02*
X129160000Y-76110000D01*
X119250000Y-66840000D02*
X118910000Y-66370000D01*
X119590000Y-66370000D01*
X119250000Y-66840000D01*
G36*
X119250000Y-66840000D02*
G01*
X118910000Y-66370000D01*
X119590000Y-66370000D01*
X119250000Y-66840000D01*
G37*
%TO.C,C6*%
X121859420Y-62490000D02*
X122140580Y-62490000D01*
X121859420Y-63510000D02*
X122140580Y-63510000D01*
%TO.C,FB1*%
X118490000Y-78337221D02*
X118490000Y-78662779D01*
X119510000Y-78337221D02*
X119510000Y-78662779D01*
%TO.C,C11*%
X116240000Y-73640580D02*
X116240000Y-73359420D01*
X117260000Y-73640580D02*
X117260000Y-73359420D01*
%TO.C,J2*%
X115580000Y-85380000D02*
X115580000Y-84000000D01*
X116960000Y-85380000D02*
X115580000Y-85380000D01*
X118230000Y-82620000D02*
X123420000Y-82620000D01*
X118230000Y-85380000D02*
X118230000Y-82620000D01*
X118230000Y-85380000D02*
X123420000Y-85380000D01*
X123420000Y-85380000D02*
X123420000Y-82620000D01*
%TO.C,C7*%
X134740000Y-66359420D02*
X134740000Y-66640580D01*
X135760000Y-66359420D02*
X135760000Y-66640580D01*
%TO.C,C15*%
X113990000Y-68859420D02*
X113990000Y-69140580D01*
X115010000Y-68859420D02*
X115010000Y-69140580D01*
%TO.C,SW2*%
X113550000Y-55530000D02*
X113550000Y-56320000D01*
X115600000Y-57370000D02*
X115400000Y-57370000D01*
X117100000Y-53230000D02*
X117100000Y-54520000D01*
X117100000Y-53230000D02*
X117300000Y-53020000D01*
X118200000Y-53020000D02*
X117300000Y-53020000D01*
X118400000Y-53230000D02*
X118200000Y-53020000D01*
X118400000Y-54520000D02*
X118400000Y-53230000D01*
X118600000Y-57370000D02*
X116900000Y-57370000D01*
X119850000Y-54520000D02*
X114150000Y-54520000D01*
X120450000Y-56320000D02*
X120450000Y-55530000D01*
%TO.C,C8*%
X118140580Y-64990000D02*
X117859420Y-64990000D01*
X118140580Y-66010000D02*
X117859420Y-66010000D01*
%TO.C,D2*%
X125700000Y-85735000D02*
X127985000Y-85735000D01*
X127985000Y-84265000D02*
X125700000Y-84265000D01*
X127985000Y-85735000D02*
X127985000Y-84265000D01*
%TD*%
M02*
