%TF.GenerationSoftware,KiCad,Pcbnew,9.0.7*%
%TF.CreationDate,2026-02-08T19:34:05+05:30*%
%TF.ProjectId,STM32_Custom_Board_Phase3,53544d33-325f-4437-9573-746f6d5f426f,rev?*%
%TF.SameCoordinates,Original*%
%TF.FileFunction,Copper,L2,Bot*%
%TF.FilePolarity,Positive*%
%FSLAX46Y46*%
G04 Gerber Fmt 4.6, Leading zero omitted, Abs format (unit mm)*
G04 Created by KiCad (PCBNEW 9.0.7) date 2026-02-08 19:34:05*
%MOMM*%
%LPD*%
G01*
G04 APERTURE LIST*
%TA.AperFunction,HeatsinkPad*%
%ADD10O,1.900000X1.200000*%
%TD*%
%TA.AperFunction,HeatsinkPad*%
%ADD11C,1.450000*%
%TD*%
%TA.AperFunction,ComponentPad*%
%ADD12R,1.700000X1.700000*%
%TD*%
%TA.AperFunction,ComponentPad*%
%ADD13C,1.700000*%
%TD*%
%TA.AperFunction,ViaPad*%
%ADD14C,0.600000*%
%TD*%
%TA.AperFunction,Conductor*%
%ADD15C,0.300000*%
%TD*%
G04 APERTURE END LIST*
D10*
%TO.P,J1,6,Shield*%
%TO.N,unconnected-(J1-Shield-Pad6)*%
X141237500Y-72500000D03*
D11*
X138537500Y-71500000D03*
X138537500Y-66500000D03*
D10*
X141237500Y-65500000D03*
%TD*%
D12*
%TO.P,J_SWD1,1,Pin_1*%
%TO.N,+3.3V*%
X110250000Y-66080000D03*
D13*
%TO.P,J_SWD1,2,Pin_2*%
%TO.N,Net-(J_SWD1-Pin_2)*%
X110250000Y-63540000D03*
%TO.P,J_SWD1,3,Pin_3*%
%TO.N,Net-(J_SWD1-Pin_3)*%
X110250000Y-61000000D03*
%TO.P,J_SWD1,4,Pin_4*%
%TO.N,GND*%
X110250000Y-58460000D03*
%TO.P,J_SWD1,5,Pin_5*%
%TO.N,/NRST*%
X110250000Y-55920000D03*
%TD*%
D12*
%TO.P,J2,1,Pin_1*%
%TO.N,Net-(J2-Pin_1)*%
X116960000Y-84000000D03*
D13*
%TO.P,J2,2,Pin_2*%
%TO.N,Net-(J2-Pin_2)*%
X119500000Y-84000000D03*
%TO.P,J2,3,Pin_3*%
%TO.N,GND*%
X122040000Y-84000000D03*
%TD*%
D14*
%TO.N,/NRST*%
X120600000Y-74275907D03*
X120790689Y-72000000D03*
%TO.N,+3.3V*%
X141500000Y-78500000D03*
X139500000Y-78500000D03*
%TO.N,GND*%
X114500000Y-74500000D03*
X127000000Y-80500000D03*
X133750000Y-67500000D03*
X113250000Y-68250000D03*
X114500000Y-77500000D03*
X122000000Y-74500000D03*
X132350000Y-67600000D03*
X131500000Y-79000000D03*
X107500000Y-58500000D03*
X137500000Y-74500000D03*
X135500000Y-82500000D03*
X123000000Y-81000000D03*
X123000000Y-86000000D03*
X135500000Y-77000000D03*
X116000000Y-65000000D03*
X120250000Y-58000000D03*
X135500000Y-76000000D03*
X123250000Y-59500000D03*
X115000000Y-81000000D03*
X138500000Y-74500000D03*
X127750000Y-60000000D03*
X124500000Y-83000000D03*
%TO.N,+3.3V*%
X117000000Y-76250000D03*
X118500000Y-63250000D03*
X113000000Y-73500000D03*
X128719893Y-73750000D03*
X116250000Y-69000000D03*
X117459620Y-67040380D03*
X132000000Y-65750000D03*
X113000000Y-72000000D03*
X118500000Y-64650000D03*
X116165380Y-70665380D03*
X130000000Y-75500000D03*
X133750000Y-66250000D03*
X128500000Y-75400000D03*
X118750000Y-76750000D03*
%TO.N,Net-(J2-Pin_1)*%
X120107353Y-77357353D03*
X121250000Y-80750000D03*
X118000000Y-74750000D03*
X120250000Y-79499000D03*
%TD*%
D15*
%TO.N,/NRST*%
X120790689Y-73959311D02*
X120500000Y-74250000D01*
X120790689Y-72000000D02*
X120790689Y-73959311D01*
%TO.N,+3.3V*%
X141000000Y-78500000D02*
X141500000Y-78500000D01*
X139500000Y-78500000D02*
X141000000Y-78500000D01*
%TO.N,GND*%
X132350000Y-67600000D02*
X133650000Y-67600000D01*
X133650000Y-67600000D02*
X133750000Y-67500000D01*
%TO.N,+3.3V*%
X130000000Y-75380107D02*
X130000000Y-75500000D01*
X117250000Y-68000000D02*
X117250000Y-67250000D01*
X113000000Y-72000000D02*
X113000000Y-73500000D01*
X117000000Y-76250000D02*
X118250000Y-76250000D01*
X116165380Y-70665380D02*
X116165380Y-69084620D01*
X128719893Y-73750000D02*
X128719893Y-74100000D01*
X118250000Y-76250000D02*
X118750000Y-76750000D01*
X116165380Y-69084620D02*
X116250000Y-69000000D01*
X128719893Y-74100000D02*
X130000000Y-75380107D01*
X133750000Y-66250000D02*
X132500000Y-66250000D01*
X128500000Y-74319893D02*
X128500000Y-75400000D01*
X118500000Y-64650000D02*
X118500000Y-63250000D01*
X128719893Y-74100000D02*
X128500000Y-74319893D01*
X117250000Y-67250000D02*
X117459620Y-67040380D01*
X132500000Y-66250000D02*
X132000000Y-65750000D01*
X116250000Y-69000000D02*
X117250000Y-68000000D01*
%TO.N,Net-(J2-Pin_1)*%
X121250000Y-80499000D02*
X120250000Y-79499000D01*
X120107353Y-76857353D02*
X120107353Y-77357353D01*
X121250000Y-80750000D02*
X121250000Y-80499000D01*
X118000000Y-74750000D02*
X120107353Y-76857353D01*
%TD*%
%TA.AperFunction,Conductor*%
%TO.N,GND*%
G36*
X147441229Y-52519685D02*
G01*
X147486984Y-52572489D01*
X147498176Y-52625796D01*
X147163307Y-75731790D01*
X147001771Y-86877797D01*
X146981117Y-86944544D01*
X146927656Y-86989529D01*
X146877784Y-87000000D01*
X105624000Y-87000000D01*
X105556961Y-86980315D01*
X105511206Y-86927511D01*
X105500000Y-86876000D01*
X105500000Y-83105131D01*
X115809500Y-83105131D01*
X115809500Y-84894856D01*
X115809502Y-84894882D01*
X115812413Y-84919987D01*
X115812415Y-84919991D01*
X115857793Y-85022764D01*
X115857794Y-85022765D01*
X115937235Y-85102206D01*
X116040009Y-85147585D01*
X116065135Y-85150500D01*
X117854864Y-85150499D01*
X117854879Y-85150497D01*
X117854882Y-85150497D01*
X117879987Y-85147586D01*
X117879988Y-85147585D01*
X117879991Y-85147585D01*
X117982765Y-85102206D01*
X118062206Y-85022765D01*
X118107585Y-84919991D01*
X118110500Y-84894865D01*
X118110499Y-84157125D01*
X118130183Y-84090089D01*
X118182987Y-84044334D01*
X118252146Y-84034390D01*
X118315702Y-84063415D01*
X118353476Y-84122193D01*
X118356972Y-84137729D01*
X118377829Y-84269410D01*
X118433787Y-84441636D01*
X118433788Y-84441639D01*
X118516006Y-84602997D01*
X118622441Y-84749494D01*
X118622445Y-84749499D01*
X118750500Y-84877554D01*
X118750505Y-84877558D01*
X118874565Y-84967692D01*
X118897006Y-84983996D01*
X118973094Y-85022765D01*
X119058360Y-85066211D01*
X119058363Y-85066212D01*
X119144476Y-85094191D01*
X119230591Y-85122171D01*
X119313429Y-85135291D01*
X119409449Y-85150500D01*
X119409454Y-85150500D01*
X119590551Y-85150500D01*
X119677259Y-85136765D01*
X119769409Y-85122171D01*
X119941639Y-85066211D01*
X120102994Y-84983996D01*
X120225669Y-84894868D01*
X120249495Y-84877558D01*
X120249497Y-84877555D01*
X120249501Y-84877553D01*
X120377553Y-84749501D01*
X120483996Y-84602994D01*
X120551090Y-84471314D01*
X120599065Y-84420519D01*
X120666886Y-84403724D01*
X120733021Y-84426262D01*
X120776472Y-84480977D01*
X120779506Y-84489292D01*
X120788904Y-84518217D01*
X120885375Y-84707550D01*
X120924728Y-84761716D01*
X121557037Y-84129408D01*
X121574075Y-84192993D01*
X121639901Y-84307007D01*
X121732993Y-84400099D01*
X121847007Y-84465925D01*
X121910590Y-84482962D01*
X121278282Y-85115269D01*
X121278282Y-85115270D01*
X121332449Y-85154624D01*
X121521782Y-85251095D01*
X121723870Y-85316757D01*
X121933754Y-85350000D01*
X122146246Y-85350000D01*
X122356127Y-85316757D01*
X122356130Y-85316757D01*
X122558217Y-85251095D01*
X122747554Y-85154622D01*
X122801716Y-85115270D01*
X122801717Y-85115270D01*
X122169408Y-84482962D01*
X122232993Y-84465925D01*
X122347007Y-84400099D01*
X122440099Y-84307007D01*
X122505925Y-84192993D01*
X122522962Y-84129409D01*
X123155270Y-84761717D01*
X123155270Y-84761716D01*
X123194622Y-84707554D01*
X123291095Y-84518217D01*
X123356757Y-84316130D01*
X123356757Y-84316127D01*
X123390000Y-84106246D01*
X123390000Y-83893753D01*
X123356757Y-83683872D01*
X123356757Y-83683869D01*
X123291095Y-83481782D01*
X123194624Y-83292449D01*
X123155270Y-83238282D01*
X123155269Y-83238282D01*
X122522962Y-83870590D01*
X122505925Y-83807007D01*
X122440099Y-83692993D01*
X122347007Y-83599901D01*
X122232993Y-83534075D01*
X122169409Y-83517037D01*
X122801716Y-82884728D01*
X122747550Y-82845375D01*
X122558217Y-82748904D01*
X122356129Y-82683242D01*
X122146246Y-82650000D01*
X121933754Y-82650000D01*
X121723872Y-82683242D01*
X121723869Y-82683242D01*
X121521782Y-82748904D01*
X121332439Y-82845380D01*
X121278282Y-82884727D01*
X121278282Y-82884728D01*
X121910591Y-83517037D01*
X121847007Y-83534075D01*
X121732993Y-83599901D01*
X121639901Y-83692993D01*
X121574075Y-83807007D01*
X121557037Y-83870591D01*
X120924728Y-83238282D01*
X120924727Y-83238282D01*
X120885380Y-83292439D01*
X120788905Y-83481781D01*
X120779506Y-83510708D01*
X120740068Y-83568383D01*
X120675709Y-83595581D01*
X120606862Y-83583666D01*
X120555387Y-83536421D01*
X120551090Y-83528684D01*
X120527191Y-83481781D01*
X120483996Y-83397006D01*
X120470396Y-83378287D01*
X120377558Y-83250505D01*
X120377554Y-83250500D01*
X120249499Y-83122445D01*
X120249494Y-83122441D01*
X120125432Y-83032305D01*
X120102996Y-83016005D01*
X119941639Y-82933788D01*
X119941636Y-82933787D01*
X119769410Y-82877829D01*
X119590551Y-82849500D01*
X119590546Y-82849500D01*
X119409454Y-82849500D01*
X119409449Y-82849500D01*
X119230589Y-82877829D01*
X119058363Y-82933787D01*
X119058360Y-82933788D01*
X118897002Y-83016006D01*
X118750505Y-83122441D01*
X118750500Y-83122445D01*
X118622445Y-83250500D01*
X118622441Y-83250505D01*
X118516006Y-83397002D01*
X118433788Y-83558360D01*
X118433787Y-83558363D01*
X118377829Y-83730589D01*
X118356972Y-83862271D01*
X118327042Y-83925405D01*
X118267731Y-83962336D01*
X118197868Y-83961338D01*
X118139636Y-83922728D01*
X118111522Y-83858764D01*
X118110499Y-83842872D01*
X118110499Y-83105143D01*
X118110499Y-83105136D01*
X118110497Y-83105117D01*
X118107586Y-83080012D01*
X118107585Y-83080010D01*
X118107585Y-83080009D01*
X118062206Y-82977235D01*
X117982765Y-82897794D01*
X117982763Y-82897793D01*
X117879992Y-82852415D01*
X117854865Y-82849500D01*
X116065143Y-82849500D01*
X116065117Y-82849502D01*
X116040012Y-82852413D01*
X116040008Y-82852415D01*
X115937235Y-82897793D01*
X115857794Y-82977234D01*
X115812415Y-83080006D01*
X115812415Y-83080008D01*
X115809500Y-83105131D01*
X105500000Y-83105131D01*
X105500000Y-79419943D01*
X119649500Y-79419943D01*
X119649500Y-79578056D01*
X119690423Y-79730783D01*
X119690426Y-79730790D01*
X119769475Y-79867709D01*
X119769479Y-79867714D01*
X119769480Y-79867716D01*
X119881284Y-79979520D01*
X119881286Y-79979521D01*
X119881290Y-79979524D01*
X120018209Y-80058573D01*
X120018216Y-80058577D01*
X120170943Y-80099500D01*
X120170945Y-80099500D01*
X120178099Y-80100442D01*
X120241996Y-80128707D01*
X120249597Y-80135700D01*
X120627477Y-80513580D01*
X120660962Y-80574903D01*
X120659572Y-80633351D01*
X120649500Y-80670943D01*
X120649500Y-80829056D01*
X120690423Y-80981783D01*
X120690426Y-80981790D01*
X120769475Y-81118709D01*
X120769479Y-81118714D01*
X120769480Y-81118716D01*
X120881284Y-81230520D01*
X120881286Y-81230521D01*
X120881290Y-81230524D01*
X121018209Y-81309573D01*
X121018216Y-81309577D01*
X121170943Y-81350500D01*
X121170945Y-81350500D01*
X121329055Y-81350500D01*
X121329057Y-81350500D01*
X121481784Y-81309577D01*
X121618716Y-81230520D01*
X121730520Y-81118716D01*
X121809577Y-80981784D01*
X121850500Y-80829057D01*
X121850500Y-80670943D01*
X121809577Y-80518216D01*
X121806900Y-80513580D01*
X121730524Y-80381290D01*
X121730518Y-80381282D01*
X121675127Y-80325891D01*
X121655398Y-80300171D01*
X121654989Y-80299462D01*
X121654989Y-80299461D01*
X121610492Y-80222390D01*
X121610488Y-80222385D01*
X120886700Y-79498597D01*
X120853215Y-79437274D01*
X120851442Y-79427099D01*
X120850500Y-79419945D01*
X120850500Y-79419943D01*
X120809577Y-79267216D01*
X120809573Y-79267209D01*
X120730524Y-79130290D01*
X120730518Y-79130282D01*
X120618717Y-79018481D01*
X120618709Y-79018475D01*
X120481790Y-78939426D01*
X120481786Y-78939424D01*
X120481784Y-78939423D01*
X120329057Y-78898500D01*
X120170943Y-78898500D01*
X120018216Y-78939423D01*
X120018209Y-78939426D01*
X119881290Y-79018475D01*
X119881282Y-79018481D01*
X119769481Y-79130282D01*
X119769475Y-79130290D01*
X119690426Y-79267209D01*
X119690423Y-79267216D01*
X119649500Y-79419943D01*
X105500000Y-79419943D01*
X105500000Y-78420943D01*
X138899500Y-78420943D01*
X138899500Y-78579056D01*
X138940423Y-78731783D01*
X138940426Y-78731790D01*
X139019475Y-78868709D01*
X139019479Y-78868714D01*
X139019480Y-78868716D01*
X139131284Y-78980520D01*
X139131286Y-78980521D01*
X139131290Y-78980524D01*
X139268209Y-79059573D01*
X139268216Y-79059577D01*
X139420943Y-79100500D01*
X139420945Y-79100500D01*
X139579055Y-79100500D01*
X139579057Y-79100500D01*
X139731784Y-79059577D01*
X139868716Y-78980520D01*
X139868721Y-78980514D01*
X139874443Y-78976125D01*
X139939612Y-78950930D01*
X139949931Y-78950500D01*
X140940691Y-78950500D01*
X141050069Y-78950500D01*
X141117108Y-78970185D01*
X141125557Y-78976125D01*
X141131281Y-78980517D01*
X141131284Y-78980520D01*
X141131287Y-78980521D01*
X141131290Y-78980524D01*
X141268209Y-79059573D01*
X141268216Y-79059577D01*
X141420943Y-79100500D01*
X141420945Y-79100500D01*
X141579055Y-79100500D01*
X141579057Y-79100500D01*
X141731784Y-79059577D01*
X141868716Y-78980520D01*
X141980520Y-78868716D01*
X142059577Y-78731784D01*
X142100500Y-78579057D01*
X142100500Y-78420943D01*
X142059577Y-78268216D01*
X142059573Y-78268209D01*
X141980524Y-78131290D01*
X141980518Y-78131282D01*
X141868717Y-78019481D01*
X141868709Y-78019475D01*
X141731790Y-77940426D01*
X141731786Y-77940424D01*
X141731784Y-77940423D01*
X141579057Y-77899500D01*
X141420943Y-77899500D01*
X141268216Y-77940423D01*
X141268209Y-77940426D01*
X141131290Y-78019475D01*
X141125557Y-78023875D01*
X141060388Y-78049070D01*
X141050069Y-78049500D01*
X139949931Y-78049500D01*
X139882892Y-78029815D01*
X139874443Y-78023875D01*
X139868709Y-78019475D01*
X139731790Y-77940426D01*
X139731786Y-77940424D01*
X139731784Y-77940423D01*
X139579057Y-77899500D01*
X139420943Y-77899500D01*
X139268216Y-77940423D01*
X139268209Y-77940426D01*
X139131290Y-78019475D01*
X139131282Y-78019481D01*
X139019481Y-78131282D01*
X139019475Y-78131290D01*
X138940426Y-78268209D01*
X138940423Y-78268216D01*
X138899500Y-78420943D01*
X105500000Y-78420943D01*
X105500000Y-76170943D01*
X116399500Y-76170943D01*
X116399500Y-76329056D01*
X116440423Y-76481783D01*
X116440426Y-76481790D01*
X116519475Y-76618709D01*
X116519479Y-76618714D01*
X116519480Y-76618716D01*
X116631284Y-76730520D01*
X116631286Y-76730521D01*
X116631290Y-76730524D01*
X116768209Y-76809573D01*
X116768216Y-76809577D01*
X116920943Y-76850500D01*
X116920945Y-76850500D01*
X117079055Y-76850500D01*
X117079057Y-76850500D01*
X117231784Y-76809577D01*
X117368716Y-76730520D01*
X117368721Y-76730514D01*
X117374443Y-76726125D01*
X117439612Y-76700930D01*
X117449931Y-76700500D01*
X118012035Y-76700500D01*
X118041475Y-76709144D01*
X118071462Y-76715668D01*
X118076477Y-76719422D01*
X118079074Y-76720185D01*
X118099716Y-76736819D01*
X118113299Y-76750402D01*
X118146784Y-76811725D01*
X118148556Y-76821893D01*
X118149498Y-76829050D01*
X118149500Y-76829057D01*
X118184215Y-76958617D01*
X118190423Y-76981783D01*
X118190426Y-76981790D01*
X118269475Y-77118709D01*
X118269479Y-77118714D01*
X118269480Y-77118716D01*
X118381284Y-77230520D01*
X118381286Y-77230521D01*
X118381290Y-77230524D01*
X118518209Y-77309573D01*
X118518216Y-77309577D01*
X118670943Y-77350500D01*
X118670945Y-77350500D01*
X118829055Y-77350500D01*
X118829057Y-77350500D01*
X118981784Y-77309577D01*
X119118716Y-77230520D01*
X119230520Y-77118716D01*
X119309577Y-76981784D01*
X119314239Y-76964384D01*
X119317397Y-76959202D01*
X119317831Y-76953144D01*
X119335370Y-76929714D01*
X119350601Y-76904726D01*
X119356063Y-76902072D01*
X119359703Y-76897211D01*
X119387119Y-76886985D01*
X119413447Y-76874195D01*
X119419477Y-76874915D01*
X119425167Y-76872794D01*
X119453758Y-76879013D01*
X119482823Y-76882488D01*
X119489024Y-76886685D01*
X119493440Y-76887646D01*
X119521694Y-76908797D01*
X119550292Y-76937395D01*
X119583777Y-76998718D01*
X119578793Y-77068410D01*
X119570001Y-77087072D01*
X119547776Y-77125569D01*
X119547775Y-77125572D01*
X119506853Y-77278296D01*
X119506853Y-77436409D01*
X119547776Y-77589136D01*
X119547779Y-77589143D01*
X119626828Y-77726062D01*
X119626832Y-77726067D01*
X119626833Y-77726069D01*
X119738637Y-77837873D01*
X119738639Y-77837874D01*
X119738643Y-77837877D01*
X119845379Y-77899500D01*
X119875569Y-77916930D01*
X120028296Y-77957853D01*
X120028298Y-77957853D01*
X120186408Y-77957853D01*
X120186410Y-77957853D01*
X120339137Y-77916930D01*
X120476069Y-77837873D01*
X120587873Y-77726069D01*
X120666930Y-77589137D01*
X120707853Y-77436410D01*
X120707853Y-77278296D01*
X120666930Y-77125569D01*
X120662974Y-77118717D01*
X120587877Y-76988643D01*
X120587874Y-76988640D01*
X120587873Y-76988637D01*
X120587870Y-76988634D01*
X120583478Y-76982910D01*
X120558283Y-76917741D01*
X120557853Y-76907422D01*
X120557853Y-76798046D01*
X120557853Y-76798044D01*
X120527152Y-76683467D01*
X120527152Y-76683466D01*
X120467842Y-76580739D01*
X119208046Y-75320943D01*
X127899500Y-75320943D01*
X127899500Y-75479057D01*
X127926295Y-75579055D01*
X127940423Y-75631783D01*
X127940426Y-75631790D01*
X128019475Y-75768709D01*
X128019479Y-75768714D01*
X128019480Y-75768716D01*
X128131284Y-75880520D01*
X128131286Y-75880521D01*
X128131290Y-75880524D01*
X128268209Y-75959573D01*
X128268216Y-75959577D01*
X128420943Y-76000500D01*
X128420945Y-76000500D01*
X128579055Y-76000500D01*
X128579057Y-76000500D01*
X128731784Y-75959577D01*
X128868716Y-75880520D01*
X128980520Y-75768716D01*
X129059577Y-75631784D01*
X129100500Y-75479057D01*
X129100500Y-75417072D01*
X129106738Y-75395826D01*
X129108318Y-75373738D01*
X129116390Y-75362954D01*
X129120185Y-75350033D01*
X129136918Y-75335533D01*
X129150190Y-75317805D01*
X129162810Y-75313097D01*
X129172989Y-75304278D01*
X129194906Y-75301126D01*
X129215654Y-75293388D01*
X129228814Y-75296250D01*
X129242147Y-75294334D01*
X129262290Y-75303533D01*
X129283927Y-75308240D01*
X129301652Y-75321508D01*
X129305703Y-75323359D01*
X129312169Y-75329380D01*
X129363182Y-75380393D01*
X129396666Y-75441714D01*
X129399500Y-75468072D01*
X129399500Y-75579057D01*
X129429341Y-75690423D01*
X129440423Y-75731783D01*
X129440426Y-75731790D01*
X129519475Y-75868709D01*
X129519479Y-75868714D01*
X129519480Y-75868716D01*
X129631284Y-75980520D01*
X129631286Y-75980521D01*
X129631290Y-75980524D01*
X129768209Y-76059573D01*
X129768216Y-76059577D01*
X129920943Y-76100500D01*
X129920945Y-76100500D01*
X130079055Y-76100500D01*
X130079057Y-76100500D01*
X130231784Y-76059577D01*
X130368716Y-75980520D01*
X130480520Y-75868716D01*
X130559577Y-75731784D01*
X130600500Y-75579057D01*
X130600500Y-75420943D01*
X130559577Y-75268216D01*
X130537816Y-75230524D01*
X130480524Y-75131290D01*
X130480518Y-75131282D01*
X130368717Y-75019481D01*
X130368709Y-75019475D01*
X130231790Y-74940426D01*
X130231777Y-74940420D01*
X130216933Y-74936443D01*
X130161347Y-74904350D01*
X129321494Y-74064497D01*
X129288009Y-74003174D01*
X129289399Y-73944724D01*
X129320393Y-73829057D01*
X129320393Y-73670943D01*
X129279470Y-73518216D01*
X129223310Y-73420943D01*
X129200417Y-73381290D01*
X129200411Y-73381282D01*
X129088610Y-73269481D01*
X129088602Y-73269475D01*
X128951683Y-73190426D01*
X128951679Y-73190424D01*
X128951677Y-73190423D01*
X128798950Y-73149500D01*
X128640836Y-73149500D01*
X128488109Y-73190423D01*
X128488102Y-73190426D01*
X128351183Y-73269475D01*
X128351175Y-73269481D01*
X128239374Y-73381282D01*
X128239368Y-73381290D01*
X128160319Y-73518209D01*
X128160316Y-73518216D01*
X128119393Y-73670943D01*
X128119393Y-73829057D01*
X128140329Y-73907191D01*
X128151682Y-73949561D01*
X128150019Y-74019411D01*
X128139294Y-74043654D01*
X128080201Y-74146005D01*
X128080200Y-74146010D01*
X128049500Y-74260584D01*
X128049500Y-74950069D01*
X128029815Y-75017108D01*
X128023875Y-75025557D01*
X128019475Y-75031290D01*
X127940426Y-75168209D01*
X127940423Y-75168216D01*
X127899500Y-75320943D01*
X119208046Y-75320943D01*
X118636700Y-74749597D01*
X118603215Y-74688274D01*
X118601442Y-74678099D01*
X118600500Y-74670945D01*
X118600500Y-74670943D01*
X118559577Y-74518216D01*
X118553504Y-74507697D01*
X118480524Y-74381290D01*
X118480518Y-74381282D01*
X118368717Y-74269481D01*
X118368709Y-74269475D01*
X118242917Y-74196850D01*
X119999500Y-74196850D01*
X119999500Y-74354964D01*
X120006553Y-74381284D01*
X120040423Y-74507690D01*
X120040426Y-74507697D01*
X120119475Y-74644616D01*
X120119479Y-74644621D01*
X120119480Y-74644623D01*
X120231284Y-74756427D01*
X120231286Y-74756428D01*
X120231290Y-74756431D01*
X120357082Y-74829056D01*
X120368216Y-74835484D01*
X120520943Y-74876407D01*
X120520945Y-74876407D01*
X120679055Y-74876407D01*
X120679057Y-74876407D01*
X120831784Y-74835484D01*
X120968716Y-74756427D01*
X121080520Y-74644623D01*
X121159577Y-74507691D01*
X121200500Y-74354964D01*
X121200500Y-74196850D01*
X121200500Y-74188722D01*
X121202347Y-74188722D01*
X121208614Y-74141108D01*
X121208384Y-74141047D01*
X121208852Y-74139297D01*
X121209269Y-74136136D01*
X121210480Y-74133209D01*
X121210488Y-74133197D01*
X121241189Y-74018620D01*
X121241189Y-72449930D01*
X121260874Y-72382891D01*
X121266817Y-72374438D01*
X121271201Y-72368723D01*
X121271209Y-72368716D01*
X121350266Y-72231784D01*
X121391189Y-72079057D01*
X121391189Y-71920943D01*
X121350266Y-71768216D01*
X121312027Y-71701983D01*
X121271213Y-71631290D01*
X121271207Y-71631282D01*
X121159406Y-71519481D01*
X121159401Y-71519477D01*
X121126173Y-71500293D01*
X121126172Y-71500293D01*
X121022473Y-71440423D01*
X120869746Y-71399500D01*
X120711632Y-71399500D01*
X120558905Y-71440423D01*
X120558898Y-71440426D01*
X120421979Y-71519475D01*
X120421971Y-71519481D01*
X120310170Y-71631282D01*
X120310164Y-71631290D01*
X120231115Y-71768209D01*
X120231112Y-71768216D01*
X120190189Y-71920943D01*
X120190189Y-72079057D01*
X120210195Y-72153718D01*
X120231112Y-72231783D01*
X120231115Y-72231790D01*
X120310162Y-72368706D01*
X120310166Y-72368712D01*
X120310169Y-72368716D01*
X120310171Y-72368718D01*
X120314561Y-72374438D01*
X120339758Y-72439606D01*
X120340189Y-72449930D01*
X120340189Y-73660919D01*
X120320504Y-73727958D01*
X120278189Y-73768306D01*
X120231287Y-73795384D01*
X120231282Y-73795388D01*
X120119481Y-73907189D01*
X120119475Y-73907197D01*
X120040426Y-74044116D01*
X120040423Y-74044123D01*
X119999500Y-74196850D01*
X118242917Y-74196850D01*
X118231790Y-74190426D01*
X118231786Y-74190424D01*
X118231784Y-74190423D01*
X118079057Y-74149500D01*
X117920943Y-74149500D01*
X117768216Y-74190423D01*
X117768209Y-74190426D01*
X117631290Y-74269475D01*
X117631282Y-74269481D01*
X117519481Y-74381282D01*
X117519475Y-74381290D01*
X117440426Y-74518209D01*
X117440423Y-74518216D01*
X117399500Y-74670943D01*
X117399500Y-74829057D01*
X117429341Y-74940423D01*
X117440423Y-74981783D01*
X117440426Y-74981790D01*
X117519475Y-75118709D01*
X117519479Y-75118714D01*
X117519480Y-75118716D01*
X117631284Y-75230520D01*
X117631286Y-75230521D01*
X117631290Y-75230524D01*
X117741814Y-75294334D01*
X117768216Y-75309577D01*
X117920943Y-75350500D01*
X117920945Y-75350500D01*
X117928099Y-75351442D01*
X117991996Y-75379707D01*
X117999597Y-75386700D01*
X118200716Y-75587819D01*
X118234201Y-75649142D01*
X118229217Y-75718834D01*
X118187345Y-75774767D01*
X118121881Y-75799184D01*
X118113035Y-75799500D01*
X117449931Y-75799500D01*
X117382892Y-75779815D01*
X117374443Y-75773875D01*
X117368709Y-75769475D01*
X117231790Y-75690426D01*
X117231786Y-75690424D01*
X117231784Y-75690423D01*
X117079057Y-75649500D01*
X116920943Y-75649500D01*
X116768216Y-75690423D01*
X116768209Y-75690426D01*
X116631290Y-75769475D01*
X116631282Y-75769481D01*
X116519481Y-75881282D01*
X116519475Y-75881290D01*
X116440426Y-76018209D01*
X116440423Y-76018216D01*
X116399500Y-76170943D01*
X105500000Y-76170943D01*
X105500000Y-71920943D01*
X112399500Y-71920943D01*
X112399500Y-72079057D01*
X112419506Y-72153718D01*
X112440423Y-72231783D01*
X112440426Y-72231790D01*
X112519473Y-72368706D01*
X112519477Y-72368712D01*
X112519480Y-72368716D01*
X112519482Y-72368718D01*
X112523872Y-72374438D01*
X112549069Y-72439606D01*
X112549500Y-72449930D01*
X112549500Y-73050069D01*
X112529815Y-73117108D01*
X112523875Y-73125557D01*
X112519475Y-73131290D01*
X112440426Y-73268209D01*
X112440423Y-73268216D01*
X112399500Y-73420943D01*
X112399500Y-73579057D01*
X112424122Y-73670945D01*
X112440423Y-73731783D01*
X112440426Y-73731790D01*
X112519475Y-73868709D01*
X112519479Y-73868714D01*
X112519480Y-73868716D01*
X112631284Y-73980520D01*
X112631286Y-73980521D01*
X112631290Y-73980524D01*
X112768209Y-74059573D01*
X112768216Y-74059577D01*
X112920943Y-74100500D01*
X112920945Y-74100500D01*
X113079055Y-74100500D01*
X113079057Y-74100500D01*
X113231784Y-74059577D01*
X113368716Y-73980520D01*
X113480520Y-73868716D01*
X113559577Y-73731784D01*
X113600500Y-73579057D01*
X113600500Y-73420943D01*
X113559577Y-73268216D01*
X113559573Y-73268209D01*
X113480524Y-73131290D01*
X113480521Y-73131287D01*
X113480520Y-73131284D01*
X113480517Y-73131281D01*
X113476125Y-73125557D01*
X113450930Y-73060388D01*
X113450500Y-73050069D01*
X113450500Y-72449930D01*
X113470185Y-72382891D01*
X113476128Y-72374438D01*
X113480512Y-72368723D01*
X113480520Y-72368716D01*
X113559577Y-72231784D01*
X113600500Y-72079057D01*
X113600500Y-71920943D01*
X113559577Y-71768216D01*
X113521338Y-71701983D01*
X113480524Y-71631290D01*
X113480518Y-71631282D01*
X113368717Y-71519481D01*
X113368709Y-71519475D01*
X113231790Y-71440426D01*
X113231786Y-71440424D01*
X113231784Y-71440423D01*
X113079057Y-71399500D01*
X112920943Y-71399500D01*
X112768216Y-71440423D01*
X112768209Y-71440426D01*
X112631290Y-71519475D01*
X112631282Y-71519481D01*
X112519481Y-71631282D01*
X112519475Y-71631290D01*
X112440426Y-71768209D01*
X112440423Y-71768216D01*
X112399500Y-71920943D01*
X105500000Y-71920943D01*
X105500000Y-71398992D01*
X137512000Y-71398992D01*
X137512000Y-71601007D01*
X137551407Y-71799119D01*
X137551409Y-71799127D01*
X137628712Y-71985752D01*
X137628717Y-71985762D01*
X137740941Y-72153718D01*
X137883781Y-72296558D01*
X138051737Y-72408782D01*
X138051741Y-72408784D01*
X138051744Y-72408786D01*
X138238373Y-72486091D01*
X138436492Y-72525499D01*
X138436496Y-72525500D01*
X138436497Y-72525500D01*
X138638504Y-72525500D01*
X138638505Y-72525499D01*
X138836627Y-72486091D01*
X139017177Y-72411304D01*
X139987000Y-72411304D01*
X139987000Y-72588695D01*
X140021603Y-72762658D01*
X140021606Y-72762667D01*
X140089483Y-72926540D01*
X140089490Y-72926553D01*
X140188035Y-73074034D01*
X140188038Y-73074038D01*
X140313461Y-73199461D01*
X140313465Y-73199464D01*
X140460946Y-73298009D01*
X140460959Y-73298016D01*
X140583863Y-73348923D01*
X140624834Y-73365894D01*
X140624836Y-73365894D01*
X140624841Y-73365896D01*
X140798804Y-73400499D01*
X140798807Y-73400500D01*
X140798809Y-73400500D01*
X141676193Y-73400500D01*
X141676194Y-73400499D01*
X141772806Y-73381282D01*
X141850158Y-73365896D01*
X141850161Y-73365894D01*
X141850166Y-73365894D01*
X142014047Y-73298013D01*
X142161535Y-73199464D01*
X142286964Y-73074035D01*
X142385513Y-72926547D01*
X142453394Y-72762666D01*
X142488000Y-72588691D01*
X142488000Y-72411309D01*
X142488000Y-72411306D01*
X142487999Y-72411304D01*
X142453396Y-72237341D01*
X142453393Y-72237332D01*
X142451097Y-72231790D01*
X142436423Y-72196363D01*
X142385516Y-72073459D01*
X142385509Y-72073446D01*
X142286964Y-71925965D01*
X142286961Y-71925961D01*
X142161538Y-71800538D01*
X142161534Y-71800535D01*
X142014053Y-71701990D01*
X142014040Y-71701983D01*
X141850167Y-71634106D01*
X141850158Y-71634103D01*
X141676194Y-71599500D01*
X141676191Y-71599500D01*
X140798809Y-71599500D01*
X140798806Y-71599500D01*
X140624841Y-71634103D01*
X140624832Y-71634106D01*
X140460959Y-71701983D01*
X140460946Y-71701990D01*
X140313465Y-71800535D01*
X140313461Y-71800538D01*
X140188038Y-71925961D01*
X140188035Y-71925965D01*
X140089490Y-72073446D01*
X140089483Y-72073459D01*
X140021606Y-72237332D01*
X140021603Y-72237341D01*
X139987000Y-72411304D01*
X139017177Y-72411304D01*
X139023256Y-72408786D01*
X139074662Y-72374438D01*
X139182902Y-72302115D01*
X139186279Y-72299857D01*
X139191218Y-72296558D01*
X139334058Y-72153718D01*
X139446286Y-71985756D01*
X139523591Y-71799127D01*
X139563000Y-71601003D01*
X139563000Y-71398997D01*
X139523591Y-71200873D01*
X139446286Y-71014244D01*
X139446284Y-71014241D01*
X139446282Y-71014237D01*
X139334058Y-70846281D01*
X139191218Y-70703441D01*
X139023262Y-70591217D01*
X139023252Y-70591212D01*
X138836627Y-70513909D01*
X138836619Y-70513907D01*
X138638507Y-70474500D01*
X138638503Y-70474500D01*
X138436497Y-70474500D01*
X138436492Y-70474500D01*
X138238380Y-70513907D01*
X138238372Y-70513909D01*
X138051747Y-70591212D01*
X138051737Y-70591217D01*
X137883781Y-70703441D01*
X137740941Y-70846281D01*
X137628717Y-71014237D01*
X137628712Y-71014247D01*
X137551409Y-71200872D01*
X137551407Y-71200880D01*
X137512000Y-71398992D01*
X105500000Y-71398992D01*
X105500000Y-70586323D01*
X115564880Y-70586323D01*
X115564880Y-70744437D01*
X115592170Y-70846282D01*
X115605803Y-70897163D01*
X115605806Y-70897170D01*
X115684855Y-71034089D01*
X115684859Y-71034094D01*
X115684860Y-71034096D01*
X115796664Y-71145900D01*
X115796666Y-71145901D01*
X115796670Y-71145904D01*
X115891879Y-71200872D01*
X115933596Y-71224957D01*
X116086323Y-71265880D01*
X116086325Y-71265880D01*
X116244435Y-71265880D01*
X116244437Y-71265880D01*
X116397164Y-71224957D01*
X116534096Y-71145900D01*
X116645900Y-71034096D01*
X116724957Y-70897164D01*
X116765880Y-70744437D01*
X116765880Y-70586323D01*
X116724957Y-70433596D01*
X116724953Y-70433589D01*
X116645904Y-70296670D01*
X116645901Y-70296667D01*
X116645900Y-70296664D01*
X116645897Y-70296661D01*
X116641505Y-70290937D01*
X116616310Y-70225768D01*
X116615880Y-70215449D01*
X116615880Y-69534718D01*
X116635565Y-69467679D01*
X116652199Y-69447037D01*
X116730520Y-69368716D01*
X116809577Y-69231784D01*
X116850500Y-69079057D01*
X116850500Y-69079044D01*
X116851441Y-69071901D01*
X116879707Y-69008003D01*
X116886688Y-69000414D01*
X117610490Y-68276613D01*
X117669799Y-68173886D01*
X117700500Y-68059309D01*
X117700500Y-67666297D01*
X117720185Y-67599258D01*
X117762501Y-67558909D01*
X117828336Y-67520900D01*
X117940140Y-67409096D01*
X118019197Y-67272164D01*
X118060120Y-67119437D01*
X118060120Y-66961323D01*
X118019197Y-66808596D01*
X117974123Y-66730524D01*
X117940144Y-66671670D01*
X117940141Y-66671667D01*
X117940140Y-66671664D01*
X117828336Y-66559860D01*
X117828334Y-66559859D01*
X117828329Y-66559855D01*
X117691410Y-66480806D01*
X117691406Y-66480804D01*
X117691404Y-66480803D01*
X117538677Y-66439880D01*
X117380563Y-66439880D01*
X117227836Y-66480803D01*
X117227829Y-66480806D01*
X117090910Y-66559855D01*
X117090902Y-66559861D01*
X116979103Y-66671661D01*
X116979095Y-66671670D01*
X116900046Y-66808589D01*
X116900043Y-66808596D01*
X116859120Y-66961323D01*
X116859120Y-66992798D01*
X116856430Y-67004568D01*
X116857464Y-67012997D01*
X116849278Y-67035873D01*
X116846817Y-67046647D01*
X116844810Y-67050808D01*
X116830201Y-67076113D01*
X116830201Y-67076114D01*
X116827186Y-67087363D01*
X116827184Y-67087369D01*
X116799500Y-67190691D01*
X116799500Y-67762035D01*
X116779815Y-67829074D01*
X116763181Y-67849716D01*
X116249597Y-68363299D01*
X116188274Y-68396784D01*
X116178107Y-68398556D01*
X116170949Y-68399498D01*
X116018216Y-68440423D01*
X116018209Y-68440426D01*
X115881290Y-68519475D01*
X115881282Y-68519481D01*
X115769481Y-68631282D01*
X115769475Y-68631290D01*
X115690426Y-68768209D01*
X115690423Y-68768216D01*
X115649500Y-68920943D01*
X115649500Y-69079057D01*
X115690423Y-69231784D01*
X115698267Y-69245371D01*
X115714880Y-69307370D01*
X115714880Y-70215449D01*
X115695195Y-70282488D01*
X115689255Y-70290937D01*
X115684855Y-70296670D01*
X115605806Y-70433589D01*
X115605803Y-70433596D01*
X115564880Y-70586323D01*
X105500000Y-70586323D01*
X105500000Y-58353753D01*
X108900000Y-58353753D01*
X108900000Y-58566246D01*
X108933242Y-58776127D01*
X108933242Y-58776130D01*
X108998904Y-58978217D01*
X109095375Y-59167550D01*
X109134728Y-59221716D01*
X109767037Y-58589408D01*
X109784075Y-58652993D01*
X109849901Y-58767007D01*
X109942993Y-58860099D01*
X110057007Y-58925925D01*
X110120590Y-58942962D01*
X109488282Y-59575269D01*
X109488282Y-59575270D01*
X109542449Y-59614624D01*
X109731780Y-59711094D01*
X109760705Y-59720492D01*
X109818381Y-59759929D01*
X109845580Y-59824287D01*
X109833667Y-59893134D01*
X109786424Y-59944610D01*
X109778685Y-59948908D01*
X109647004Y-60016004D01*
X109500505Y-60122441D01*
X109500500Y-60122445D01*
X109372445Y-60250500D01*
X109372441Y-60250505D01*
X109266006Y-60397002D01*
X109183788Y-60558360D01*
X109183787Y-60558363D01*
X109127829Y-60730589D01*
X109099500Y-60909448D01*
X109099500Y-61090551D01*
X109127829Y-61269410D01*
X109183787Y-61441636D01*
X109183788Y-61441639D01*
X109266006Y-61602997D01*
X109372441Y-61749494D01*
X109372445Y-61749499D01*
X109500500Y-61877554D01*
X109500505Y-61877558D01*
X109628287Y-61970396D01*
X109647006Y-61983996D01*
X109752484Y-62037740D01*
X109808360Y-62066211D01*
X109808363Y-62066212D01*
X109894476Y-62094191D01*
X109980591Y-62122171D01*
X110053639Y-62133740D01*
X110140678Y-62147527D01*
X110203813Y-62177456D01*
X110240744Y-62236768D01*
X110239746Y-62306631D01*
X110201136Y-62364863D01*
X110140678Y-62392473D01*
X109980589Y-62417829D01*
X109808363Y-62473787D01*
X109808360Y-62473788D01*
X109647002Y-62556006D01*
X109500505Y-62662441D01*
X109500500Y-62662445D01*
X109372445Y-62790500D01*
X109372441Y-62790505D01*
X109266006Y-62937002D01*
X109183788Y-63098360D01*
X109183787Y-63098363D01*
X109127829Y-63270589D01*
X109099500Y-63449448D01*
X109099500Y-63630551D01*
X109127829Y-63809410D01*
X109183787Y-63981636D01*
X109183788Y-63981639D01*
X109266006Y-64142997D01*
X109372441Y-64289494D01*
X109372445Y-64289499D01*
X109500500Y-64417554D01*
X109500505Y-64417558D01*
X109628287Y-64510396D01*
X109647006Y-64523996D01*
X109739144Y-64570943D01*
X109808360Y-64606211D01*
X109808363Y-64606212D01*
X109894205Y-64634103D01*
X109980591Y-64662171D01*
X110084716Y-64678662D01*
X110112270Y-64683027D01*
X110175405Y-64712956D01*
X110212336Y-64772268D01*
X110211338Y-64842130D01*
X110172728Y-64900363D01*
X110108765Y-64928477D01*
X110092872Y-64929500D01*
X109355143Y-64929500D01*
X109355117Y-64929502D01*
X109330012Y-64932413D01*
X109330008Y-64932415D01*
X109227235Y-64977793D01*
X109147794Y-65057234D01*
X109102415Y-65160006D01*
X109102415Y-65160008D01*
X109099500Y-65185131D01*
X109099500Y-66974856D01*
X109099502Y-66974882D01*
X109102413Y-66999987D01*
X109102415Y-66999991D01*
X109147793Y-67102764D01*
X109147794Y-67102765D01*
X109227235Y-67182206D01*
X109330009Y-67227585D01*
X109355135Y-67230500D01*
X111144864Y-67230499D01*
X111144879Y-67230497D01*
X111144882Y-67230497D01*
X111169987Y-67227586D01*
X111169988Y-67227585D01*
X111169991Y-67227585D01*
X111272765Y-67182206D01*
X111352206Y-67102765D01*
X111397585Y-66999991D01*
X111400500Y-66974865D01*
X111400499Y-65670943D01*
X131399500Y-65670943D01*
X131399500Y-65829057D01*
X131425623Y-65926547D01*
X131440423Y-65981783D01*
X131440426Y-65981790D01*
X131519475Y-66118709D01*
X131519479Y-66118714D01*
X131519480Y-66118716D01*
X131631284Y-66230520D01*
X131631286Y-66230521D01*
X131631290Y-66230524D01*
X131768209Y-66309573D01*
X131768216Y-66309577D01*
X131920943Y-66350500D01*
X131920944Y-66350500D01*
X131928100Y-66351442D01*
X131991996Y-66379708D01*
X131999596Y-66386700D01*
X132223386Y-66610490D01*
X132326113Y-66669799D01*
X132333068Y-66671662D01*
X132333072Y-66671665D01*
X132333073Y-66671664D01*
X132355815Y-66677757D01*
X132440691Y-66700500D01*
X133300069Y-66700500D01*
X133367108Y-66720185D01*
X133375557Y-66726125D01*
X133381281Y-66730517D01*
X133381284Y-66730520D01*
X133381287Y-66730521D01*
X133381290Y-66730524D01*
X133500102Y-66799119D01*
X133518216Y-66809577D01*
X133670943Y-66850500D01*
X133670945Y-66850500D01*
X133829055Y-66850500D01*
X133829057Y-66850500D01*
X133981784Y-66809577D01*
X134118716Y-66730520D01*
X134230520Y-66618716D01*
X134309577Y-66481784D01*
X134331761Y-66398992D01*
X137512000Y-66398992D01*
X137512000Y-66601007D01*
X137551407Y-66799119D01*
X137551409Y-66799127D01*
X137628712Y-66985752D01*
X137628717Y-66985762D01*
X137740941Y-67153718D01*
X137883781Y-67296558D01*
X138051737Y-67408782D01*
X138051741Y-67408784D01*
X138051744Y-67408786D01*
X138238373Y-67486091D01*
X138413361Y-67520898D01*
X138436492Y-67525499D01*
X138436496Y-67525500D01*
X138436497Y-67525500D01*
X138638504Y-67525500D01*
X138638505Y-67525499D01*
X138836627Y-67486091D01*
X139023256Y-67408786D01*
X139191218Y-67296558D01*
X139334058Y-67153718D01*
X139446286Y-66985756D01*
X139523591Y-66799127D01*
X139563000Y-66601003D01*
X139563000Y-66398997D01*
X139523591Y-66200873D01*
X139446286Y-66014244D01*
X139446284Y-66014241D01*
X139446282Y-66014237D01*
X139334058Y-65846281D01*
X139191218Y-65703441D01*
X139023262Y-65591217D01*
X139023252Y-65591212D01*
X138939838Y-65556661D01*
X138836627Y-65513909D01*
X138836623Y-65513908D01*
X138836619Y-65513907D01*
X138638507Y-65474500D01*
X138638503Y-65474500D01*
X138436497Y-65474500D01*
X138436492Y-65474500D01*
X138238380Y-65513907D01*
X138238372Y-65513909D01*
X138051747Y-65591212D01*
X138051737Y-65591217D01*
X137883781Y-65703441D01*
X137740941Y-65846281D01*
X137628717Y-66014237D01*
X137628712Y-66014247D01*
X137551409Y-66200872D01*
X137551407Y-66200880D01*
X137512000Y-66398992D01*
X134331761Y-66398992D01*
X134350500Y-66329057D01*
X134350500Y-66170943D01*
X134309577Y-66018216D01*
X134256656Y-65926553D01*
X134230524Y-65881290D01*
X134230518Y-65881282D01*
X134118717Y-65769481D01*
X134118709Y-65769475D01*
X133981790Y-65690426D01*
X133981786Y-65690424D01*
X133981784Y-65690423D01*
X133829057Y-65649500D01*
X133670943Y-65649500D01*
X133518216Y-65690423D01*
X133518209Y-65690426D01*
X133381290Y-65769475D01*
X133375557Y-65773875D01*
X133310388Y-65799070D01*
X133300069Y-65799500D01*
X132737966Y-65799500D01*
X132708525Y-65790855D01*
X132678539Y-65784332D01*
X132673523Y-65780577D01*
X132670927Y-65779815D01*
X132650285Y-65763181D01*
X132636700Y-65749596D01*
X132603215Y-65688273D01*
X132601442Y-65678100D01*
X132600500Y-65670944D01*
X132594754Y-65649500D01*
X132559577Y-65518216D01*
X132497852Y-65411304D01*
X139987000Y-65411304D01*
X139987000Y-65588695D01*
X140021603Y-65762658D01*
X140021606Y-65762667D01*
X140089483Y-65926540D01*
X140089490Y-65926553D01*
X140188035Y-66074034D01*
X140188038Y-66074038D01*
X140313461Y-66199461D01*
X140313465Y-66199464D01*
X140460946Y-66298009D01*
X140460959Y-66298016D01*
X140583863Y-66348923D01*
X140624834Y-66365894D01*
X140624836Y-66365894D01*
X140624841Y-66365896D01*
X140798804Y-66400499D01*
X140798807Y-66400500D01*
X140798809Y-66400500D01*
X141676193Y-66400500D01*
X141676194Y-66400499D01*
X141745568Y-66386700D01*
X141850158Y-66365896D01*
X141850161Y-66365894D01*
X141850166Y-66365894D01*
X142014047Y-66298013D01*
X142161535Y-66199464D01*
X142286964Y-66074035D01*
X142385513Y-65926547D01*
X142453394Y-65762666D01*
X142463195Y-65713396D01*
X142476464Y-65646682D01*
X142488000Y-65588691D01*
X142488000Y-65411309D01*
X142488000Y-65411306D01*
X142487999Y-65411304D01*
X142453396Y-65237341D01*
X142453393Y-65237332D01*
X142385516Y-65073459D01*
X142385509Y-65073446D01*
X142286964Y-64925965D01*
X142286961Y-64925961D01*
X142161538Y-64800538D01*
X142161534Y-64800535D01*
X142014053Y-64701990D01*
X142014040Y-64701983D01*
X141850167Y-64634106D01*
X141850158Y-64634103D01*
X141676194Y-64599500D01*
X141676191Y-64599500D01*
X140798809Y-64599500D01*
X140798806Y-64599500D01*
X140624841Y-64634103D01*
X140624832Y-64634106D01*
X140460959Y-64701983D01*
X140460946Y-64701990D01*
X140313465Y-64800535D01*
X140313461Y-64800538D01*
X140188038Y-64925961D01*
X140188035Y-64925965D01*
X140089490Y-65073446D01*
X140089483Y-65073459D01*
X140021606Y-65237332D01*
X140021603Y-65237341D01*
X139987000Y-65411304D01*
X132497852Y-65411304D01*
X132480524Y-65381290D01*
X132480518Y-65381282D01*
X132368717Y-65269481D01*
X132368709Y-65269475D01*
X132231790Y-65190426D01*
X132231786Y-65190424D01*
X132231784Y-65190423D01*
X132079057Y-65149500D01*
X131920943Y-65149500D01*
X131768216Y-65190423D01*
X131768209Y-65190426D01*
X131631290Y-65269475D01*
X131631282Y-65269481D01*
X131519481Y-65381282D01*
X131519475Y-65381290D01*
X131440426Y-65518209D01*
X131440423Y-65518216D01*
X131399500Y-65670943D01*
X111400499Y-65670943D01*
X111400499Y-65185136D01*
X111400497Y-65185117D01*
X111397586Y-65160012D01*
X111397585Y-65160010D01*
X111397585Y-65160009D01*
X111352206Y-65057235D01*
X111272765Y-64977794D01*
X111272763Y-64977793D01*
X111169992Y-64932415D01*
X111144868Y-64929500D01*
X110407128Y-64929500D01*
X110340089Y-64909815D01*
X110294334Y-64857011D01*
X110284390Y-64787853D01*
X110313415Y-64724297D01*
X110372193Y-64686523D01*
X110387730Y-64683027D01*
X110411014Y-64679338D01*
X110519409Y-64662171D01*
X110691639Y-64606211D01*
X110852994Y-64523996D01*
X110999501Y-64417553D01*
X111127553Y-64289501D01*
X111233996Y-64142994D01*
X111316211Y-63981639D01*
X111372171Y-63809409D01*
X111391146Y-63689606D01*
X111400500Y-63630551D01*
X111400500Y-63449448D01*
X111372170Y-63270587D01*
X111349604Y-63201133D01*
X111339795Y-63170943D01*
X117899500Y-63170943D01*
X117899500Y-63329056D01*
X117940423Y-63481783D01*
X117940426Y-63481790D01*
X118019473Y-63618706D01*
X118019477Y-63618712D01*
X118019480Y-63618716D01*
X118019482Y-63618718D01*
X118023872Y-63624438D01*
X118049069Y-63689606D01*
X118049500Y-63699930D01*
X118049500Y-64200069D01*
X118029815Y-64267108D01*
X118023875Y-64275557D01*
X118019475Y-64281290D01*
X117940426Y-64418209D01*
X117940423Y-64418216D01*
X117899500Y-64570943D01*
X117899500Y-64729057D01*
X117918654Y-64800538D01*
X117940423Y-64881783D01*
X117940426Y-64881790D01*
X118019475Y-65018709D01*
X118019479Y-65018714D01*
X118019480Y-65018716D01*
X118131284Y-65130520D01*
X118131286Y-65130521D01*
X118131290Y-65130524D01*
X118235040Y-65190423D01*
X118268216Y-65209577D01*
X118420943Y-65250500D01*
X118420945Y-65250500D01*
X118579055Y-65250500D01*
X118579057Y-65250500D01*
X118731784Y-65209577D01*
X118868716Y-65130520D01*
X118980520Y-65018716D01*
X119059577Y-64881784D01*
X119100500Y-64729057D01*
X119100500Y-64570943D01*
X119059577Y-64418216D01*
X119059194Y-64417553D01*
X118980524Y-64281290D01*
X118980521Y-64281287D01*
X118980520Y-64281284D01*
X118980517Y-64281281D01*
X118976125Y-64275557D01*
X118950930Y-64210388D01*
X118950500Y-64200069D01*
X118950500Y-63699930D01*
X118970185Y-63632891D01*
X118976128Y-63624438D01*
X118980512Y-63618723D01*
X118980520Y-63618716D01*
X119059577Y-63481784D01*
X119100500Y-63329057D01*
X119100500Y-63170943D01*
X119059577Y-63018216D01*
X119012689Y-62937002D01*
X118980524Y-62881290D01*
X118980518Y-62881282D01*
X118868717Y-62769481D01*
X118868709Y-62769475D01*
X118731790Y-62690426D01*
X118731786Y-62690424D01*
X118731784Y-62690423D01*
X118579057Y-62649500D01*
X118420943Y-62649500D01*
X118268216Y-62690423D01*
X118268209Y-62690426D01*
X118131290Y-62769475D01*
X118131282Y-62769481D01*
X118019481Y-62881282D01*
X118019475Y-62881290D01*
X117940426Y-63018209D01*
X117940423Y-63018216D01*
X117899500Y-63170943D01*
X111339795Y-63170943D01*
X111316212Y-63098363D01*
X111316211Y-63098360D01*
X111275371Y-63018209D01*
X111233996Y-62937006D01*
X111193512Y-62881284D01*
X111127558Y-62790505D01*
X111127554Y-62790500D01*
X110999499Y-62662445D01*
X110999494Y-62662441D01*
X110852997Y-62556006D01*
X110852996Y-62556005D01*
X110852994Y-62556004D01*
X110801300Y-62529664D01*
X110691639Y-62473788D01*
X110691636Y-62473787D01*
X110519410Y-62417829D01*
X110359321Y-62392473D01*
X110296186Y-62362544D01*
X110259255Y-62303232D01*
X110260253Y-62233370D01*
X110298863Y-62175137D01*
X110359321Y-62147527D01*
X110429425Y-62136422D01*
X110519409Y-62122171D01*
X110691639Y-62066211D01*
X110852994Y-61983996D01*
X110999501Y-61877553D01*
X111127553Y-61749501D01*
X111233996Y-61602994D01*
X111316211Y-61441639D01*
X111372171Y-61269409D01*
X111386765Y-61177259D01*
X111400500Y-61090551D01*
X111400500Y-60909448D01*
X111384019Y-60805397D01*
X111372171Y-60730591D01*
X111316211Y-60558361D01*
X111316211Y-60558360D01*
X111287740Y-60502484D01*
X111233996Y-60397006D01*
X111220396Y-60378287D01*
X111127558Y-60250505D01*
X111127554Y-60250500D01*
X110999499Y-60122445D01*
X110999494Y-60122441D01*
X110852995Y-60016004D01*
X110721314Y-59948908D01*
X110670519Y-59900934D01*
X110653724Y-59833113D01*
X110676262Y-59766978D01*
X110730977Y-59723527D01*
X110739295Y-59720492D01*
X110768217Y-59711095D01*
X110957554Y-59614622D01*
X111011716Y-59575270D01*
X111011717Y-59575270D01*
X110379408Y-58942962D01*
X110442993Y-58925925D01*
X110557007Y-58860099D01*
X110650099Y-58767007D01*
X110715925Y-58652993D01*
X110732962Y-58589408D01*
X111365270Y-59221717D01*
X111365270Y-59221716D01*
X111404622Y-59167554D01*
X111501095Y-58978217D01*
X111566757Y-58776130D01*
X111566757Y-58776127D01*
X111600000Y-58566246D01*
X111600000Y-58353753D01*
X111566757Y-58143872D01*
X111566757Y-58143869D01*
X111501095Y-57941782D01*
X111404624Y-57752449D01*
X111365270Y-57698282D01*
X111365269Y-57698282D01*
X110732962Y-58330590D01*
X110715925Y-58267007D01*
X110650099Y-58152993D01*
X110557007Y-58059901D01*
X110442993Y-57994075D01*
X110379409Y-57977037D01*
X111011716Y-57344728D01*
X110957550Y-57305375D01*
X110768217Y-57208904D01*
X110739292Y-57199506D01*
X110681616Y-57160068D01*
X110654418Y-57095710D01*
X110666333Y-57026863D01*
X110713577Y-56975388D01*
X110721315Y-56971090D01*
X110852994Y-56903996D01*
X110999501Y-56797553D01*
X111127553Y-56669501D01*
X111233996Y-56522994D01*
X111316211Y-56361639D01*
X111372171Y-56189409D01*
X111386765Y-56097259D01*
X111400500Y-56010551D01*
X111400500Y-55988995D01*
X114799499Y-55988995D01*
X114826418Y-56124322D01*
X114826421Y-56124332D01*
X114879221Y-56251804D01*
X114879228Y-56251817D01*
X114955885Y-56366541D01*
X114955888Y-56366545D01*
X115053454Y-56464111D01*
X115053458Y-56464114D01*
X115168182Y-56540771D01*
X115168195Y-56540778D01*
X115295667Y-56593578D01*
X115295672Y-56593580D01*
X115295676Y-56593580D01*
X115295677Y-56593581D01*
X115431004Y-56620500D01*
X115431007Y-56620500D01*
X115568995Y-56620500D01*
X115660041Y-56602389D01*
X115704328Y-56593580D01*
X115831811Y-56540775D01*
X115946542Y-56464114D01*
X116044114Y-56366542D01*
X116120775Y-56251811D01*
X116173580Y-56124328D01*
X116200500Y-55988995D01*
X117799499Y-55988995D01*
X117826418Y-56124322D01*
X117826421Y-56124332D01*
X117879221Y-56251804D01*
X117879228Y-56251817D01*
X117955885Y-56366541D01*
X117955888Y-56366545D01*
X118053454Y-56464111D01*
X118053458Y-56464114D01*
X118168182Y-56540771D01*
X118168195Y-56540778D01*
X118295667Y-56593578D01*
X118295672Y-56593580D01*
X118295676Y-56593580D01*
X118295677Y-56593581D01*
X118431004Y-56620500D01*
X118431007Y-56620500D01*
X118568995Y-56620500D01*
X118660041Y-56602389D01*
X118704328Y-56593580D01*
X118831811Y-56540775D01*
X118946542Y-56464114D01*
X119044114Y-56366542D01*
X119120775Y-56251811D01*
X119173580Y-56124328D01*
X119200500Y-55988993D01*
X119200500Y-55851007D01*
X119200500Y-55851004D01*
X119173581Y-55715677D01*
X119173580Y-55715676D01*
X119173580Y-55715672D01*
X119146622Y-55650589D01*
X119120778Y-55588195D01*
X119120771Y-55588182D01*
X119044114Y-55473458D01*
X119044111Y-55473454D01*
X118946545Y-55375888D01*
X118946541Y-55375885D01*
X118831817Y-55299228D01*
X118831804Y-55299221D01*
X118704332Y-55246421D01*
X118704322Y-55246418D01*
X118568995Y-55219500D01*
X118568993Y-55219500D01*
X118431007Y-55219500D01*
X118431005Y-55219500D01*
X118295677Y-55246418D01*
X118295667Y-55246421D01*
X118168195Y-55299221D01*
X118168182Y-55299228D01*
X118053458Y-55375885D01*
X118053454Y-55375888D01*
X117955888Y-55473454D01*
X117955885Y-55473458D01*
X117879228Y-55588182D01*
X117879221Y-55588195D01*
X117826421Y-55715667D01*
X117826418Y-55715677D01*
X117799500Y-55851004D01*
X117799500Y-55851007D01*
X117799500Y-55988993D01*
X117799500Y-55988995D01*
X117799499Y-55988995D01*
X116200500Y-55988995D01*
X116200500Y-55988993D01*
X116200500Y-55851007D01*
X116200500Y-55851004D01*
X116173581Y-55715677D01*
X116173580Y-55715676D01*
X116173580Y-55715672D01*
X116146622Y-55650589D01*
X116120778Y-55588195D01*
X116120771Y-55588182D01*
X116044114Y-55473458D01*
X116044111Y-55473454D01*
X115946545Y-55375888D01*
X115946541Y-55375885D01*
X115831817Y-55299228D01*
X115831804Y-55299221D01*
X115704332Y-55246421D01*
X115704322Y-55246418D01*
X115568995Y-55219500D01*
X115568993Y-55219500D01*
X115431007Y-55219500D01*
X115431005Y-55219500D01*
X115295677Y-55246418D01*
X115295667Y-55246421D01*
X115168195Y-55299221D01*
X115168182Y-55299228D01*
X115053458Y-55375885D01*
X115053454Y-55375888D01*
X114955888Y-55473454D01*
X114955885Y-55473458D01*
X114879228Y-55588182D01*
X114879221Y-55588195D01*
X114826421Y-55715667D01*
X114826418Y-55715677D01*
X114799500Y-55851004D01*
X114799500Y-55851007D01*
X114799500Y-55988993D01*
X114799500Y-55988995D01*
X114799499Y-55988995D01*
X111400500Y-55988995D01*
X111400500Y-55829448D01*
X111384019Y-55725397D01*
X111372171Y-55650591D01*
X111316211Y-55478361D01*
X111316211Y-55478360D01*
X111263997Y-55375886D01*
X111233996Y-55317006D01*
X111220396Y-55298287D01*
X111127558Y-55170505D01*
X111127554Y-55170500D01*
X110999499Y-55042445D01*
X110999494Y-55042441D01*
X110852997Y-54936006D01*
X110852996Y-54936005D01*
X110852994Y-54936004D01*
X110801300Y-54909664D01*
X110691639Y-54853788D01*
X110691636Y-54853787D01*
X110519410Y-54797829D01*
X110340551Y-54769500D01*
X110340546Y-54769500D01*
X110159454Y-54769500D01*
X110159449Y-54769500D01*
X109980589Y-54797829D01*
X109808363Y-54853787D01*
X109808360Y-54853788D01*
X109647002Y-54936006D01*
X109500505Y-55042441D01*
X109500500Y-55042445D01*
X109372445Y-55170500D01*
X109372441Y-55170505D01*
X109266006Y-55317002D01*
X109183788Y-55478360D01*
X109183787Y-55478363D01*
X109127829Y-55650589D01*
X109099500Y-55829448D01*
X109099500Y-56010551D01*
X109127829Y-56189410D01*
X109183787Y-56361636D01*
X109183788Y-56361639D01*
X109266006Y-56522997D01*
X109372441Y-56669494D01*
X109372445Y-56669499D01*
X109500500Y-56797554D01*
X109500505Y-56797558D01*
X109628287Y-56890396D01*
X109647006Y-56903996D01*
X109748780Y-56955853D01*
X109778684Y-56971090D01*
X109829480Y-57019065D01*
X109846275Y-57086886D01*
X109823737Y-57153021D01*
X109769022Y-57196472D01*
X109760708Y-57199506D01*
X109731781Y-57208905D01*
X109542439Y-57305380D01*
X109488282Y-57344727D01*
X109488282Y-57344728D01*
X110120591Y-57977037D01*
X110057007Y-57994075D01*
X109942993Y-58059901D01*
X109849901Y-58152993D01*
X109784075Y-58267007D01*
X109767037Y-58330591D01*
X109134728Y-57698282D01*
X109134727Y-57698282D01*
X109095380Y-57752439D01*
X108998904Y-57941782D01*
X108933242Y-58143869D01*
X108933242Y-58143872D01*
X108900000Y-58353753D01*
X105500000Y-58353753D01*
X105500000Y-52624000D01*
X105519685Y-52556961D01*
X105572489Y-52511206D01*
X105624000Y-52500000D01*
X147374190Y-52500000D01*
X147441229Y-52519685D01*
G37*
%TD.AperFunction*%
%TD*%
M02*
