M48
; DRILL file {KiCad 9.0.7} date 2026-02-08T19:34:22+0530
; FORMAT={-:-/ absolute / metric / decimal}
; #@! TF.CreationDate,2026-02-08T19:34:22+05:30
; #@! TF.GenerationSoftware,Kicad,Pcbnew,9.0.7
; #@! TF.FileFunction,Plated,1,2,PTH
FMAT,2
METRIC
; #@! TA.AperFunction,Plated,PTH,ViaDrill
T1C0.300
; #@! TA.AperFunction,Plated,PTH,ComponentDrill
T2C0.600
; #@! TA.AperFunction,Plated,PTH,ComponentDrill
T3C0.850
; #@! TA.AperFunction,Plated,PTH,ComponentDrill
T4C1.000
%
G90
G05
T1
X107.5Y-58.5
X113.0Y-72.0
X113.0Y-73.5
X113.25Y-68.25
X114.5Y-74.5
X114.5Y-77.5
X115.0Y-81.0
X116.0Y-65.0
X116.165Y-70.665
X116.25Y-69.0
X117.0Y-76.25
X117.46Y-67.04
X118.0Y-74.75
X118.5Y-63.25
X118.5Y-64.65
X118.75Y-76.75
X120.107Y-77.357
X120.25Y-58.0
X120.25Y-79.499
X120.6Y-74.276
X120.791Y-72.0
X121.25Y-80.75
X122.0Y-74.5
X123.0Y-81.0
X123.0Y-86.0
X123.25Y-59.5
X124.5Y-83.0
X127.0Y-80.5
X127.75Y-60.0
X128.5Y-75.4
X128.72Y-73.75
X130.0Y-75.5
X131.5Y-79.0
X132.0Y-65.75
X132.35Y-67.6
X133.75Y-66.25
X133.75Y-67.5
X135.5Y-76.0
X135.5Y-77.0
X135.5Y-82.5
X137.5Y-74.5
X138.5Y-74.5
X139.5Y-78.5
X141.5Y-78.5
T3
X138.537Y-66.5
X138.537Y-71.5
T4
X110.25Y-55.92
X110.25Y-58.46
X110.25Y-61.0
X110.25Y-63.54
X110.25Y-66.08
X116.96Y-84.0
X119.5Y-84.0
X122.04Y-84.0
T2
G00X140.887Y-65.5
M15
G01X141.588Y-65.5
M16
G05
G00X141.588Y-72.5
M15
G01X140.887Y-72.5
M16
G05
M30
